<svg width="92" height="92" viewBox="0 0 92 92" fill="none" xmlns="http://www.w3.org/2000/svg">
<circle cx="46" cy="46" r="45" stroke="#E5E5E5"/>
<path d="M21.5321 30C26.1635 30.5251 28.4792 30.919 28.4792 31.1816L29.3724 30.8862C30.5192 31.4988 31.7212 31.8052 32.9783 31.8052L33.6068 31.1816L34.7977 31.1816L37.5104 30.8862C38.9219 31.1706 39.6276 32.1771 39.6276 33.9057L39.3299 34.7919L38.1059 34.7919C36.518 34.7919 35.724 36.8815 35.724 41.0608L35.724 41.6844L36.0217 45.2619L35.724 45.2619C36.3195 46.0715 36.7164 47.6688 36.9149 50.0538C36.9149 50.6446 36.6172 50.9399 36.0217 50.9399L35.724 51.2682L35.724 51.5635L36.0217 53.0405L35.724 53.9595L36.0217 56.6508L36.0217 59.0468C36.0658 60.0314 36.2643 60.5237 36.6172 60.5237L34.7977 67.7116L35.724 69.5168L35.3932 69.5168L36.6172 74.604L35.724 74.604C34.8639 74.604 33.8494 75.1073 32.6805 76.1138L32.3828 76.1138C31.236 76.1138 30.1333 75.709 29.0747 74.8994L27.5529 74.8994L25.138 75.4902L20.0104 74.8994L18.1909 75.1948L17.5955 74.3087L17.5955 73.7179C17.5955 73.2146 18.7092 72.6129 20.9367 71.9127L21.5321 69.2214C21.5321 67.7554 21.2234 66.4534 20.6059 65.3156C20.7382 63.3901 21.2454 61.7928 22.1276 60.5237L21.8299 59.3422L22.1276 58.4232L21.2344 56.6508L21.8299 51.5635C21.8299 48.9816 21.5321 46.6841 20.9367 44.6711L21.8299 43.4567L21.8299 43.1613L20.9367 42.2751L21.2344 41.9797L21.2344 39.8792L20.9367 38.074L21.2344 37.7786L21.2344 37.4832C21.2344 34.8794 19.9222 33.5775 17.2977 33.5775L17 33.2821L17 32.6913C18.61 30.8971 20.1207 30 21.5321 30ZM49.2873 60.5237C51.0958 61.0051 52 62.2086 52 64.1341L52 66.2346C50.9855 66.2346 50.4783 66.8254 50.4783 68.007L52 74.0133L52 74.3087C52 75.6215 51.603 76.5186 50.8091 77L47.7656 74.8994L40.5208 75.4902C39.3299 75.4902 38.7344 74.8994 38.7344 73.7179L38.7344 73.0943C38.7344 72.8098 39.9364 72.3175 42.3403 71.6173C42.3403 70.8077 42.8475 70.0091 43.862 69.2214L45.9792 67.1208L46.2769 65.9392L45.9792 65.611L45.9792 65.3156L47.4679 63.2151C47.5781 61.4209 48.1846 60.5237 49.2873 60.5237Z" fill="#14213D"/>
<path d="M45.5321 10C50.1635 10.5251 52.4792 10.919 52.4792 11.1816L53.3724 10.8862C54.5192 11.4988 55.7212 11.8052 56.9783 11.8052L57.6068 11.1816H58.7977L61.5104 10.8862C62.9219 11.1706 63.6276 12.1771 63.6276 13.9057L63.3299 14.7919H62.1059C60.518 14.7919 59.724 16.8815 59.724 21.0608V21.6844L60.0217 25.2619H59.724C60.3195 26.0715 60.7164 27.6688 60.9149 30.0538C60.9149 30.6446 60.6172 30.9399 60.0217 30.9399L59.724 31.2682V31.5635L60.0217 33.0405L59.724 33.9595L60.0217 36.6508V39.0468C60.0658 40.0314 60.2643 40.5237 60.6172 40.5237L58.7977 47.7116L59.724 49.5168H59.3932L60.6172 54.6041H59.724C58.8639 54.6041 57.8494 55.1073 56.6805 56.1138H56.3828C55.236 56.1138 54.1333 55.709 53.0747 54.8994H51.5529L49.138 55.4902L44.0104 54.8994L42.1909 55.1948L41.5955 54.3087V53.7179C41.5955 53.2146 42.7092 52.6129 44.9367 51.9127L45.5321 49.2214C45.5321 47.7554 45.2234 46.4534 44.6059 45.3156C44.7382 43.3901 45.2454 41.7928 46.1276 40.5237L45.8299 39.3422L46.1276 38.4232L45.2344 36.6508L45.8299 31.5635C45.8299 28.9816 45.5321 26.6841 44.9367 24.6711L45.8299 23.4567V23.1613L44.9367 22.2751L45.2344 21.9797V19.8792L44.9367 18.074L45.2344 17.7786V17.4832C45.2344 14.8794 43.9222 13.5775 41.2977 13.5775L41 13.2821V12.6913C42.61 10.8971 44.1207 10 45.5321 10ZM73.2873 40.5237C75.0958 41.0051 76 42.2086 76 44.1341V46.2346C74.9855 46.2346 74.4783 46.8254 74.4783 48.007L76 54.0133V54.3087C76 55.6215 75.603 56.5186 74.8091 57L71.7656 54.8994L64.5208 55.4902C63.3299 55.4902 62.7344 54.8994 62.7344 53.7179V53.0943C62.7344 52.8098 63.9364 52.3175 66.3403 51.6173C66.3403 50.8077 66.8475 50.0091 67.862 49.2214L69.9792 47.1208L70.2769 45.9392L69.9792 45.611V45.3156L71.4679 43.2151C71.5781 41.4209 72.1846 40.5237 73.2873 40.5237Z" fill="#FCA311"/>
</svg>
