<svg xmlns="http://www.w3.org/2000/svg" width="693" height="64" viewBox="0 0 693 64" fill="none">
<path d="M14.24 50.56V0.159998H0.8V64H51.2V50.56H14.24ZM84.0403 0.831995C66.5683 0.831995 52.4563 15.04 52.4563 32.416C52.4563 49.888 66.5683 64 84.0403 64C101.416 64 115.624 49.888 115.624 32.416C115.624 15.04 101.416 0.831995 84.0403 0.831995ZM102.376 32.416C102.376 42.592 94.1203 50.848 84.0403 50.848C73.8643 50.848 65.6083 42.592 65.6083 32.416C65.6083 22.336 73.8643 14.08 84.0403 14.08C94.1203 14.08 102.376 22.336 102.376 32.416ZM172.104 38.752L171.432 40.192C168.36 46.528 161.928 50.56 154.92 50.56C146.28 50.56 138.696 44.416 136.968 35.968C136.68 34.816 136.584 33.472 136.584 32.224C136.584 30.976 136.68 29.824 136.968 28.576C138.6 20.032 146.184 13.888 154.92 13.888C162.312 13.888 168.936 18.304 171.816 25.024L172.488 26.56H186.408L185.448 23.392C183.624 16.864 179.592 11.008 174.216 6.88C168.648 2.65599 161.928 0.447994 154.92 0.447994C147.24 0.447994 139.752 3.232 133.992 8.32C128.232 13.312 124.488 20.224 123.432 27.712C123.24 29.248 123.144 30.688 123.144 32.224C123.144 33.76 123.24 35.392 123.432 36.928C124.488 44.416 128.328 51.232 133.992 56.224C139.848 61.312 147.24 64 154.92 64C161.736 64 168.264 61.888 173.832 57.856C179.208 53.824 183.144 48.448 185.16 42.112L186.216 38.752H172.104ZM185.441 60.256L183.425 64H200.321L200.993 62.752L214.721 37.888L206.273 22.72L185.441 60.256ZM254.753 60.256L227.873 11.776L222.305 1.792L221.729 0.447994H218.465L217.793 1.792L212.321 11.776L211.649 13.024L220.097 28.288L220.289 28.672L226.529 39.904L239.201 62.752L239.873 64H256.769L254.753 60.256ZM277.959 50.56V0.159998H264.519V64H314.919V50.56H277.959ZM379.49 50.56V0.159998H366.05V64H416.45V50.56H379.49ZM426.144 0.639997V3.136V14.08H482.784V0.639997H426.144ZM439.584 36.928H477.12V23.488H439.584L426.144 23.392V50.56V53.056V64H482.784V50.56H439.584V36.928ZM492.285 60.256L490.269 64H507.165L507.837 62.752L521.565 37.888L513.117 22.72L492.285 60.256ZM561.597 60.256L534.717 11.776L529.149 1.792L528.573 0.447994H525.309L524.637 1.792L519.165 11.776L518.493 13.024L526.941 28.288L527.133 28.672L533.373 39.904L546.045 62.752L546.717 64H563.613L561.597 60.256ZM629.275 60.16L611.131 30.4C611.227 30.4 611.323 30.304 611.419 30.208L611.515 30.112C611.611 30.112 611.707 30.016 611.707 29.92C611.899 29.824 611.995 29.728 612.187 29.632C612.283 29.536 612.475 29.344 612.667 29.248C612.667 29.152 612.763 29.152 612.763 29.152C612.859 29.056 613.051 28.864 613.147 28.768C613.531 28.384 613.915 28.096 614.395 27.616C618.715 23.296 621.787 17.92 623.035 11.968C623.611 9.664 623.803 7.36 623.803 5.056C623.803 4.288 623.803 3.51999 623.707 2.848L623.611 0.447994H570.331V13.888H599.131H608.059C607.195 15.424 606.139 16.864 604.891 18.016C603.259 19.648 601.435 20.896 599.323 21.856C599.227 21.856 599.227 21.856 599.131 21.952C596.923 22.816 594.523 23.296 592.123 23.296H570.331V64H583.771V36.832H592.123C592.315 36.832 592.507 36.736 592.699 36.736H592.795H592.891H593.083C593.275 36.736 593.371 36.736 593.563 36.736C593.659 36.736 593.755 36.736 593.755 36.736C593.947 36.736 594.139 36.736 594.331 36.736H594.523L594.619 36.64C594.811 36.64 595.003 36.64 595.291 36.64C595.483 36.64 595.675 36.544 595.963 36.544C596.059 36.544 596.155 36.544 596.251 36.544C596.443 36.448 596.635 36.448 596.827 36.448C596.923 36.448 597.019 36.448 597.115 36.352C597.211 36.352 597.403 36.352 597.595 36.352C597.979 36.256 598.363 36.16 598.747 36.064L615.067 62.848L615.835 64H631.579L629.275 60.16ZM641.3 64H654.74V42.592L641.3 29.152V64ZM679.22 0.543999V34.72L644.564 0.159998H641.3V1.792V7.84V15.904L654.74 29.344L663.956 38.56L679.892 54.496L689.396 64H692.66V0.543999H679.22Z" fill="#ffffff"/>
</svg>