<svg width="26" height="22" viewBox="0 0 26 22" fill="none" xmlns="http://www.w3.org/2000/svg">
<path d="M16.4227 8.00012V4.00012C16.4227 3.20447 16.1066 2.44141 15.544 1.8788C14.9814 1.31619 14.2184 1.00012 13.4227 1.00012L9.42271 10.0001V21.0001H20.7027C21.185 21.0056 21.6531 20.8365 22.0206 20.5241C22.3881 20.2117 22.6304 19.777 22.7027 19.3001L24.0827 10.3001C24.1262 10.0135 24.1069 9.72081 24.026 9.44238C23.9452 9.16395 23.8048 8.90642 23.6146 8.68764C23.4243 8.46886 23.1888 8.29405 22.9243 8.17534C22.6598 8.05662 22.3726 7.99684 22.0827 8.00012H16.4227Z" stroke="black" stroke-width="2" stroke-linecap="round" stroke-linejoin="round"/>
<path d="M1.87289 20.4144C2.24797 20.7894 2.75668 21.0001 3.28711 21.0001H5.99992V10.0001H3.28711C2.75668 10.0001 2.24797 10.2109 1.87289 10.5859C1.49782 10.961 1.28711 11.4697 1.28711 12.0001V19.0001C1.28711 19.5306 1.49782 20.0393 1.87289 20.4144Z" stroke="black" stroke-width="2" stroke-linecap="round" stroke-linejoin="round"/>
</svg>
