<svg width="26" height="22" viewBox="0 0 26 22" fill="none" xmlns="http://www.w3.org/2000/svg">
<path d="M16.4227 8V4C16.4227 3.20435 16.1066 2.44129 15.544 1.87868C14.9814 1.31607 14.2184 1 13.4227 1L9.42271 10V21H20.7027C21.185 21.0055 21.6531 20.8364 22.0206 20.524C22.3881 20.2116 22.6304 19.7769 22.7027 19.3L24.0827 10.3C24.1262 10.0134 24.1069 9.72068 24.026 9.44225C23.9452 9.16382 23.8048 8.9063 23.6146 8.68752C23.4243 8.46874 23.1888 8.29393 22.9243 8.17522C22.6598 8.0565 22.3726 7.99672 22.0827 8H16.4227Z" fill="black"/>
<path d="M1.87289 20.4142C2.24797 20.7893 2.75668 21 3.28711 21H5.99992V10H3.28711C2.75668 10 2.24797 10.2107 1.87289 10.5858C1.49782 10.9609 1.28711 11.4696 1.28711 12V19C1.28711 19.5304 1.49782 20.0392 1.87289 20.4142Z" fill="black"/>
<path d="M16.4227 8V4C16.4227 3.20435 16.1066 2.44129 15.544 1.87868C14.9814 1.31607 14.2184 1 13.4227 1L9.42271 10V21H20.7027C21.185 21.0055 21.6531 20.8364 22.0206 20.524C22.3881 20.2116 22.6304 19.7769 22.7027 19.3L24.0827 10.3C24.1262 10.0134 24.1069 9.72068 24.026 9.44225C23.9452 9.16382 23.8048 8.9063 23.6146 8.68752C23.4243 8.46874 23.1888 8.29393 22.9243 8.17522C22.6598 8.0565 22.3726 7.99672 22.0827 8H16.4227Z" stroke="black" stroke-width="2" stroke-linecap="round" stroke-linejoin="round"/>
<path d="M1.87289 20.4142C2.24797 20.7893 2.75668 21 3.28711 21H5.99992V10H3.28711C2.75668 10 2.24797 10.2107 1.87289 10.5858C1.49782 10.9609 1.28711 11.4696 1.28711 12V19C1.28711 19.5304 1.49782 20.0392 1.87289 20.4142Z" stroke="black" stroke-width="2" stroke-linecap="round" stroke-linejoin="round"/>
</svg>
