<svg width="483" height="70" viewBox="0 0 483 70" fill="none" xmlns="http://www.w3.org/2000/svg">
<circle cx="35" cy="35" r="34" stroke="#E5E5E5"/>
<path d="M16.5131 22.9109C20.0124 23.3077 21.762 23.6052 21.762 23.8036L22.4369 23.5804C23.3034 24.0433 24.2115 24.2748 25.1613 24.2748L25.6362 23.8036L26.536 23.8036L28.5856 23.5804C29.6521 23.7954 30.1853 24.5558 30.1853 25.8619L29.9603 26.5314L29.0355 26.5314C27.8358 26.5314 27.2359 28.1103 27.2359 31.2679L27.2359 31.7391L27.4608 34.4421L27.2359 34.4421C27.6858 35.0538 27.9857 36.2606 28.1357 38.0626C28.1357 38.509 27.9108 38.7322 27.4608 38.7322L27.2359 38.9802L27.2359 39.2033L27.4608 40.3193L27.2359 41.0136L27.4608 43.0471L27.4608 44.8573C27.4942 45.6013 27.6441 45.9733 27.9108 45.9733L26.536 51.4041L27.2359 52.768L26.9859 52.768L27.9108 56.6117L27.2359 56.6117C26.586 56.6117 25.8195 56.992 24.9364 57.7524L24.7114 57.7524C23.8449 57.7524 23.0118 57.4466 22.2119 56.8349L21.0622 56.8349L19.2376 57.2813L15.3634 56.8349L13.9887 57.0581L13.5388 56.3885L13.5388 55.9422C13.5388 55.5619 14.3803 55.1073 16.0632 54.5783L16.5131 52.5448C16.5131 51.4372 16.2799 50.4535 15.8133 49.5938C15.9133 48.139 16.2965 46.9321 16.9631 45.9733L16.7381 45.0805L16.9631 44.3862L16.2882 43.0471L16.7381 39.2033C16.7381 37.2525 16.5131 35.5167 16.0632 33.9957L16.7381 33.0782L16.7381 32.855L16.0632 32.1854L16.2882 31.9623L16.2882 30.3752L16.0632 29.0113L16.2882 28.7881L16.2882 28.5649C16.2882 26.5976 15.2967 25.6139 13.3138 25.6139L13.0889 25.3907L13.0889 24.9443C14.3053 23.5887 15.4467 22.9109 16.5131 22.9109ZM37.4837 45.9733C38.8501 46.337 39.5333 47.2462 39.5333 48.7011L39.5333 50.2882C38.7668 50.2882 38.3836 50.7345 38.3836 51.6273L39.5333 56.1654L39.5333 56.3885C39.5333 57.3805 39.2334 58.0583 38.6335 58.422L36.334 56.8349L30.8601 57.2813C29.9603 57.2813 29.5104 56.8349 29.5104 55.9422L29.5104 55.471C29.5104 55.2561 30.4186 54.8841 32.2348 54.3551C32.2348 53.7434 32.6181 53.14 33.3846 52.5448L34.9843 50.9577L35.2092 50.065L34.9843 49.817L34.9843 49.5938L36.109 48.0067C36.1923 46.6511 36.6506 45.9733 37.4837 45.9733Z" fill="#14213D"/>
<path d="M34.6464 7.80005C38.1457 8.19682 39.8953 8.4944 39.8953 8.69279L40.5702 8.4696C41.4367 8.9325 42.3448 9.16395 43.2946 9.16395L43.7695 8.69279H44.6693L46.7189 8.4696C47.7854 8.68452 48.3186 9.445 48.3186 10.751L48.0936 11.4206H47.1688C45.9691 11.4206 45.3692 12.9994 45.3692 16.1571V16.6282L45.5941 19.3312H45.3692C45.8191 19.9429 46.119 21.1498 46.269 22.9518C46.269 23.3982 46.0441 23.6213 45.5941 23.6213L45.3692 23.8693V24.0925L45.5941 25.2084L45.3692 25.9028L45.5941 27.9362V29.7465C45.6275 30.4905 45.7774 30.8624 46.0441 30.8624L44.6693 36.2933L45.3692 37.6572H45.1192L46.0441 41.5009H45.3692C44.7193 41.5009 43.9528 41.8811 43.0697 42.6416H42.8447C41.9782 42.6416 41.1451 42.3358 40.3453 41.7241H39.1955L37.3709 42.1704L33.4967 41.7241L32.122 41.9473L31.6721 41.2777V40.8313C31.6721 40.4511 32.5136 39.9965 34.1965 39.4674L34.6464 37.434C34.6464 36.3263 34.4132 35.3427 33.9466 34.483C34.0466 33.0281 34.4298 31.8213 35.0964 30.8624L34.8714 29.9697L35.0964 29.2753L34.4215 27.9362L34.8714 24.0925C34.8714 22.1417 34.6464 20.4058 34.1965 18.8849L34.8714 17.9673V17.7442L34.1965 17.0746L34.4215 16.8514V15.2643L34.1965 13.9004L34.4215 13.6772V13.4541C34.4215 11.4867 33.43 10.5031 31.4471 10.5031L31.2222 10.2799V9.83351C32.4386 8.47787 33.58 7.80005 34.6464 7.80005ZM55.617 30.8624C56.9834 31.2261 57.6666 32.1354 57.6666 33.5902V35.1773C56.9001 35.1773 56.5169 35.6237 56.5169 36.5164L57.6666 41.0545V41.2777C57.6666 42.2696 57.3667 42.9475 56.7668 43.3112L54.4673 41.7241L48.9934 42.1704C48.0936 42.1704 47.6437 41.7241 47.6437 40.8313V40.3602C47.6437 40.1452 48.5519 39.7733 50.3681 39.2442C50.3681 38.6326 50.7514 38.0291 51.5179 37.434L53.1176 35.8469L53.3425 34.9541L53.1176 34.7062V34.483L54.2423 32.8959C54.3256 31.5403 54.7839 30.8624 55.617 30.8624Z" fill="#FCA311"/>
<path d="M83.4062 12.1875C87.7812 12.6875 89.9688 13.0625 89.9688 13.3125L90.8125 13.0312C91.8958 13.6146 93.0312 13.9062 94.2188 13.9062L94.8125 13.3125H95.9375L98.5 13.0312C99.8333 13.3021 100.5 14.2604 100.5 15.9062L100.219 16.75H99.0625C97.5625 16.75 96.8125 18.7396 96.8125 22.7188V23.3125L97.0938 26.7188H96.8125C97.375 27.4896 97.75 29.0104 97.9375 31.2812C97.9375 31.8438 97.6562 32.125 97.0938 32.125L96.8125 32.4375V32.7188L97.0938 34.125L96.8125 35L97.0938 37.5625V39.8438C97.1354 40.7812 97.3229 41.25 97.6562 41.25L95.9375 48.0938L96.8125 49.8125H96.5L97.6562 54.6562H96.8125C96 54.6562 95.0417 55.1354 93.9375 56.0938H93.6562C92.5729 56.0938 91.5312 55.7083 90.5312 54.9375H89.0938L86.8125 55.5L81.9688 54.9375L80.25 55.2188L79.6875 54.375V53.8125C79.6875 53.3333 80.7396 52.7604 82.8438 52.0938L83.4062 49.5312C83.4062 48.1354 83.1146 46.8958 82.5312 45.8125C82.6562 43.9792 83.1354 42.4583 83.9688 41.25L83.6875 40.125L83.9688 39.25L83.125 37.5625L83.6875 32.7188C83.6875 30.2604 83.4062 28.0729 82.8438 26.1562L83.6875 25V24.7188L82.8438 23.875L83.125 23.5938V21.5938L82.8438 19.875L83.125 19.5938V19.3125C83.125 16.8333 81.8854 15.5938 79.4062 15.5938L79.125 15.3125V14.75C80.6458 13.0417 82.0729 12.1875 83.4062 12.1875ZM109.625 41.25C111.333 41.7083 112.188 42.8542 112.188 44.6875V46.6875C111.229 46.6875 110.75 47.25 110.75 48.375L112.188 54.0938V54.375C112.188 55.625 111.812 56.4792 111.062 56.9375L108.188 54.9375L101.344 55.5C100.219 55.5 99.6562 54.9375 99.6562 53.8125V53.2188C99.6562 52.9479 100.792 52.4792 103.062 51.8125C103.062 51.0417 103.542 50.2812 104.5 49.5312L106.5 47.5312L106.781 46.4062L106.5 46.0938V45.8125L107.906 43.8125C108.01 42.1042 108.583 41.25 109.625 41.25Z" fill="#FCA311"/>
<path d="M134.281 12.1875C135.031 12.375 135.406 12.8542 135.406 13.625C134.823 15.4375 133.688 16.7604 132 17.5938L131.438 21V23.5625L131.719 25.5625C130.969 25.6667 130.594 25.9479 130.594 26.4062L130.875 26.7188V27L130.312 28.9688L130.875 30.6875L130.594 32.125L131.156 32.6875V33.25L130.594 34.0938V34.9688L131.156 35.8125V36.9375L130.875 37.25L131.438 38.375L130.875 40.0938V45.2188L130.312 46.0625V47.4688C130.312 48.3229 131.729 50.4167 134.562 53.75C134.562 55.8333 134.188 56.875 133.438 56.875C132.646 56.125 130.75 55.4583 127.75 54.875C123.5 52.75 120.74 50 119.469 46.625C119.469 45.7917 119 44.5625 118.062 42.9375C118.062 42.4792 117.396 41.4375 116.062 39.8125L115.781 38.375C116.531 37.2292 116.906 36.375 116.906 35.8125L116.625 32.125C117.396 30.4375 117.969 27.5833 118.344 23.5625L119.188 22.7188L118.906 20.1562C119.677 20.1562 120.062 19.6771 120.062 18.7188C121.771 18.7188 122.625 17.9688 122.625 16.4688L125.469 14.4688L127.156 14.75C128.344 14 130.719 13.1458 134.281 12.1875ZM140.25 12.75C143.667 13.375 145.375 14.3229 145.375 15.5938C145.792 15.9896 146.833 16.1875 148.5 16.1875C149.833 17.9583 150.5 19.375 150.5 20.4375C151.917 20.4375 153.438 24.2292 155.062 31.8125L155.344 32.125C154.594 33.5625 154.219 35.8333 154.219 38.9375L154.5 41.5C153.958 43.3958 153.292 44.3438 152.5 44.3438C152.5 48.0729 150.51 50.8229 146.531 52.5938C145.281 54.4896 142.719 55.4375 138.844 55.4375C137.99 56.3958 137.135 56.875 136.281 56.875L136 56.0312C136 53.9688 137.135 52.3542 139.406 51.1875C139.802 49.0625 140.281 47.9271 140.844 47.7812L140.531 47.4688V46.9062L140.844 44.0625C139.698 40.6458 139.125 38.0833 139.125 36.375C139.125 35.3333 139.698 34.3854 140.844 33.5312L141.125 31.25L139.406 27.5625L140.531 23.2812L139.406 21.2812L139.688 19.875V19.0312C139.688 17.6146 138.74 16.2812 136.844 15.0312V14.75L137.125 13.3125H137.969L140.25 12.75Z" fill="#FCA311"/>
<path d="M176.406 12.1875L177.25 12.4688V15C177.25 16.2917 176.302 17.0417 174.406 17.25L174.688 17.5312L173.844 18.9688L174.125 20.9375L173.562 21.5V23.4688L173.844 23.75L173.562 24.0312V24.3125L174.125 26.5625V27.4062C173 30.0938 172.438 31.9792 172.438 33.0625L174.125 38.125L173.562 39.8125V41.8125L174.406 45.75L173.562 48.2812V49.4062C173.562 50.4062 174.885 52.0104 177.531 54.2188L176.969 56.1875H176.688C175.708 56.1875 174.854 55.9062 174.125 55.3438H173.562L171.031 55.625C170.135 55.4792 169.385 55.0104 168.781 54.2188L162.844 51.0938L163.406 49.6875C162.094 49.3958 161.438 48.9271 161.438 48.2812L161.719 48V47.7188L158.906 40.6875C159.281 39.8542 159.469 38.3438 159.469 36.1562L158.625 31.6562C158.625 27.6771 159.75 25.1354 162 24.0312L162.281 23.75V23.4688L161.438 22.0625C161.917 21.1042 162.76 20.2604 163.969 19.5312C164.281 18.1562 166.448 16.2708 170.469 13.875C170.469 13.4375 172.448 12.875 176.406 12.1875ZM182.594 12.4688C182.594 12.9688 184.01 13.7188 186.844 14.7188C188.156 14.7188 189.375 14.0625 190.5 12.75H191.062C192 13.2292 192.469 14.0729 192.469 15.2812C192.469 16.2188 192.281 16.6875 191.906 16.6875C192.281 17.1458 192.562 18.6562 192.75 21.2188L192.469 26L193.312 28.25C192.771 29.5833 191.927 30.25 190.781 30.25C190.781 29.75 190.312 29.375 189.375 29.125L187.125 21.5C186.646 21.5 185.885 20.8438 184.844 19.5312C183.906 19.3854 183.438 19.1042 183.438 18.6875L183.719 17.5312C182.781 16.8438 181.375 16.375 179.5 16.125C179.5 14.0625 180.062 13.0312 181.188 13.0312C181.188 12.6562 181.656 12.4688 182.594 12.4688ZM192.469 43.7812L192.75 44.0625C192.521 46.9792 191.958 49.1354 191.062 50.5312C189.75 50.5312 189.094 51.2917 189.094 52.8125L184.844 54.2188V53.9375L181.75 57.0312H180.062C179.312 56.7188 178.938 56.0625 178.938 55.0625V53.9375C178.938 53.6042 181.375 52.375 186.25 50.25C188.333 45.9375 190.406 43.7812 192.469 43.7812Z" fill="#FCA311"/>
<path d="M225.531 12.2812L225.812 12.5625L226.406 13.125H226.688L226.125 15.4375L227.281 18.625L228.438 19.7812V25.8438C229 26.3646 229.76 28.6771 230.719 32.7812L231.875 33.9375L231.594 34.2188V35.375L231.875 36.5312L231.594 37.6875L233.344 42.875H233.031L233.906 44.3125L233.031 45.7812C233.698 45.7812 234.281 46.9375 234.781 49.25L234.5 51.25C234.5 51.8333 235.365 52.4167 237.094 53L237.938 55.3125L236.781 56.1562H236.5L235.656 55.5938H235.062L231.312 56.75H231.031L229.875 56.4688L228.719 56.75H228.125L226.688 55.875L220.625 56.75C219.625 56.75 218.854 56.2708 218.312 55.3125V55C219.479 54.2917 220.062 53.0417 220.062 51.25L219.469 49.25L219.75 48.9375L219.188 46.3438L219.469 46.0625V44.9062H216.875L214.562 45.4688C214.062 45.0938 213.104 44.9062 211.688 44.9062L211.375 44.625V42C211.375 41.625 211.958 41.3438 213.125 41.1562L214.281 42.3125H216.281L217.75 42L216.875 37.0938L217.156 35.375C216.573 35.375 215.896 33.2604 215.125 29.0312L215.438 28.1562L212.844 18.9062L213.125 18.0625L212.844 15.4375C212.99 14.2917 213.562 13.7188 214.562 13.7188L216 14L225.531 12.2812ZM211.688 22.0938H211.969L212.25 22.9688L211.969 23.8125L212.25 26.7188C212.25 29.2396 211.677 31.2604 210.531 32.7812C210.531 35.1979 209.76 37.8958 208.219 40.875L208.5 41.7188L208.219 43.75L208.5 45.7812L207.625 46.0625L207.906 47.7812L207.062 50.0938V50.375C207.062 52.0625 208.312 53.0312 210.812 53.2812H211.375V53.5625C211.375 55.875 210.708 57.0312 209.375 57.0312H205.906C205.26 57.0312 204.583 56.7396 203.875 56.1562L199.844 57.0312C199.094 57.0312 198.417 55.9688 197.812 53.8438V53.2812C200.125 53.2812 201.281 52.2188 201.281 50.0938C203.052 48.3229 204.688 45.25 206.188 40.875L205.906 40L209.062 29.3125L209.656 28.7188L209.375 27.875C209.375 25.5208 210.146 23.5938 211.688 22.0938Z" fill="#FCA311"/>
<path d="M246.031 12.1875C250.406 12.6875 252.594 13.0625 252.594 13.3125L253.438 13.0312C254.521 13.6146 255.656 13.9062 256.844 13.9062L257.438 13.3125H258.562L261.125 13.0312C262.458 13.3021 263.125 14.2604 263.125 15.9062L262.844 16.75H261.688C260.188 16.75 259.438 18.7396 259.438 22.7188V23.3125L259.719 26.7188H259.438C260 27.4896 260.375 29.0104 260.562 31.2812C260.562 31.8438 260.281 32.125 259.719 32.125L259.438 32.4375V32.7188L259.719 34.125L259.438 35L259.719 37.5625V39.8438C259.76 40.7812 259.948 41.25 260.281 41.25L258.562 48.0938L259.438 49.8125H259.125L260.281 54.6562H259.438C258.625 54.6562 257.667 55.1354 256.562 56.0938H256.281C255.198 56.0938 254.156 55.7083 253.156 54.9375H251.719L249.438 55.5L244.594 54.9375L242.875 55.2188L242.312 54.375V53.8125C242.312 53.3333 243.365 52.7604 245.469 52.0938L246.031 49.5312C246.031 48.1354 245.74 46.8958 245.156 45.8125C245.281 43.9792 245.76 42.4583 246.594 41.25L246.312 40.125L246.594 39.25L245.75 37.5625L246.312 32.7188C246.312 30.2604 246.031 28.0729 245.469 26.1562L246.312 25V24.7188L245.469 23.875L245.75 23.5938V21.5938L245.469 19.875L245.75 19.5938V19.3125C245.75 16.8333 244.51 15.5938 242.031 15.5938L241.75 15.3125V14.75C243.271 13.0417 244.698 12.1875 246.031 12.1875ZM272.25 41.25C273.958 41.7083 274.812 42.8542 274.812 44.6875V46.6875C273.854 46.6875 273.375 47.25 273.375 48.375L274.812 54.0938V54.375C274.812 55.625 274.438 56.4792 273.688 56.9375L270.812 54.9375L263.969 55.5C262.844 55.5 262.281 54.9375 262.281 53.8125V53.2188C262.281 52.9479 263.417 52.4792 265.688 51.8125C265.688 51.0417 266.167 50.2812 267.125 49.5312L269.125 47.5312L269.406 46.4062L269.125 46.0938V45.8125L270.531 43.8125C270.635 42.1042 271.208 41.25 272.25 41.25Z" fill="#FCA311"/>
<path d="M282.906 12.1875C287.281 12.6875 289.469 13.0625 289.469 13.3125L290.312 13.0312C291.396 13.6146 292.531 13.9062 293.719 13.9062L294.312 13.3125H295.438L298 13.0312C299.333 13.3021 300 14.2604 300 15.9062L299.719 16.75H298.562C297.062 16.75 296.312 18.7396 296.312 22.7188V23.3125L296.594 26.7188H296.312C296.875 27.4896 297.25 29.0104 297.438 31.2812C297.438 31.8438 297.156 32.125 296.594 32.125L296.312 32.4375V32.7188L296.594 34.125L296.312 35L296.594 37.5625V39.8438C296.635 40.7812 296.823 41.25 297.156 41.25L295.438 48.0938L296.312 49.8125H296L297.156 54.6562H296.312C295.5 54.6562 294.542 55.1354 293.438 56.0938H293.156C292.073 56.0938 291.031 55.7083 290.031 54.9375H288.594L286.312 55.5L281.469 54.9375L279.75 55.2188L279.188 54.375V53.8125C279.188 53.3333 280.24 52.7604 282.344 52.0938L282.906 49.5312C282.906 48.1354 282.615 46.8958 282.031 45.8125C282.156 43.9792 282.635 42.4583 283.469 41.25L283.188 40.125L283.469 39.25L282.625 37.5625L283.188 32.7188C283.188 30.2604 282.906 28.0729 282.344 26.1562L283.188 25V24.7188L282.344 23.875L282.625 23.5938V21.5938L282.344 19.875L282.625 19.5938V19.3125C282.625 16.8333 281.385 15.5938 278.906 15.5938L278.625 15.3125V14.75C280.146 13.0417 281.573 12.1875 282.906 12.1875ZM309.125 41.25C310.833 41.7083 311.688 42.8542 311.688 44.6875V46.6875C310.729 46.6875 310.25 47.25 310.25 48.375L311.688 54.0938V54.375C311.688 55.625 311.312 56.4792 310.562 56.9375L307.688 54.9375L300.844 55.5C299.719 55.5 299.156 54.9375 299.156 53.8125V53.2188C299.156 52.9479 300.292 52.4792 302.562 51.8125C302.562 51.0417 303.042 50.2812 304 49.5312L306 47.5312L306.281 46.4062L306 46.0938V45.8125L307.406 43.8125C307.51 42.1042 308.083 41.25 309.125 41.25Z" fill="#14213D"/>
<path d="M322.906 12.1875C325.135 13.1458 327.458 13.7292 329.875 13.9375L331.906 13.3438C332.281 13.3438 332.958 14.1146 333.938 15.6562V18.2812L332.781 20V21.4688L333.062 24.9375L332.469 29L334.5 33.6562C334.5 34.7396 333.635 37.5417 331.906 42.0625V42.3438L332.469 43.2188L332.188 44.375L332.781 47.2812L332.469 47.5625V47.8438L332.781 48.125V49H332.469L332.781 51.0312V55.9688L332.469 56.25V56.5312L332.188 56.25H331.906L326.688 57.125L322.906 55.0938L319.438 56.5312H318.844C317.781 56.5312 316.823 55.8646 315.969 54.5312C315.969 53.7396 316.833 53.1562 318.562 52.7812L318.844 52.5V52.1875L318.281 51.0312L319.438 47.8438C319.438 46.1354 319.146 44.8854 318.562 44.0938L319.156 41.75V38.875L318.844 37.6875L319.156 36.5312L318.562 32.4688L319.438 29.2812L318.562 24.6562L319.438 20C318.375 17.9583 317.021 16.5104 315.375 15.6562C315.375 13.5312 317.885 12.4688 322.906 12.4688V12.1875ZM338 12.1875L339.156 12.7812L339.438 12.4688H339.719L342.906 13.0625L346.094 12.7812L348.438 13.3438V14.7812L348.719 24.0625C347.885 25.1042 346.917 25.6875 345.812 25.8125L343.5 22.9062V22.0312L343.781 21.75C342.552 19.4375 341.302 18.2812 340.031 18.2812L339.719 17.125L337.125 17.4062C336.146 17.2812 335.656 16.6979 335.656 15.6562V13.3438C335.656 12.9688 336.438 12.5833 338 12.1875ZM341.469 24.9375V26.6875C341.99 26.6875 342.469 29.875 342.906 36.25L342.625 37.125L343.5 39.4375L343.219 39.7188L343.5 41.1875C343.25 42.7292 342.667 43.5 341.75 43.5C341.021 43.4583 339.865 42.1979 338.281 39.7188C337.885 39.7188 337.688 39.1458 337.688 38L335.656 35.9688C335.656 33.2604 336.333 31.9062 337.688 31.9062C337.688 31.5104 337.979 31.3125 338.562 31.3125L340.031 25.2188L340.312 24.9375H341.469ZM347.562 42.9062C348.458 42.9062 349.031 44.4583 349.281 47.5625H349.594L348.719 49.875L349 50.1562L348.719 51.625V56.25L347.562 56.5312L342.062 55.6875L335.969 56.5312L336.25 55.6875L335.969 53.9375V53.6562C335.969 53.2604 336.833 53.0625 338.562 53.0625C338.812 52.4792 340.167 51.5104 342.625 50.1562C344.104 46.5104 345.552 44.0938 346.969 42.9062H347.562Z" fill="#14213D"/>
<path d="M380.844 12.2812L381.125 12.5625L381.719 13.125H382L381.438 15.4375L382.594 18.625L383.75 19.7812V25.8438C384.312 26.3646 385.073 28.6771 386.031 32.7812L387.188 33.9375L386.906 34.2188V35.375L387.188 36.5312L386.906 37.6875L388.656 42.875H388.344L389.219 44.3125L388.344 45.7812C389.01 45.7812 389.594 46.9375 390.094 49.25L389.812 51.25C389.812 51.8333 390.677 52.4167 392.406 53L393.25 55.3125L392.094 56.1562H391.812L390.969 55.5938H390.375L386.625 56.75H386.344L385.188 56.4688L384.031 56.75H383.438L382 55.875L375.938 56.75C374.938 56.75 374.167 56.2708 373.625 55.3125V55C374.792 54.2917 375.375 53.0417 375.375 51.25L374.781 49.25L375.062 48.9375L374.5 46.3438L374.781 46.0625V44.9062H372.188L369.875 45.4688C369.375 45.0938 368.417 44.9062 367 44.9062L366.688 44.625V42C366.688 41.625 367.271 41.3438 368.438 41.1562L369.594 42.3125H371.594L373.062 42L372.188 37.0938L372.469 35.375C371.885 35.375 371.208 33.2604 370.438 29.0312L370.75 28.1562L368.156 18.9062L368.438 18.0625L368.156 15.4375C368.302 14.2917 368.875 13.7188 369.875 13.7188L371.312 14L380.844 12.2812ZM367 22.0938H367.281L367.562 22.9688L367.281 23.8125L367.562 26.7188C367.562 29.2396 366.99 31.2604 365.844 32.7812C365.844 35.1979 365.073 37.8958 363.531 40.875L363.812 41.7188L363.531 43.75L363.812 45.7812L362.938 46.0625L363.219 47.7812L362.375 50.0938V50.375C362.375 52.0625 363.625 53.0312 366.125 53.2812H366.688V53.5625C366.688 55.875 366.021 57.0312 364.688 57.0312H361.219C360.573 57.0312 359.896 56.7396 359.188 56.1562L355.156 57.0312C354.406 57.0312 353.729 55.9688 353.125 53.8438V53.2812C355.438 53.2812 356.594 52.2188 356.594 50.0938C358.365 48.3229 360 45.25 361.5 40.875L361.219 40L364.375 29.3125L364.969 28.7188L364.688 27.875C364.688 25.5208 365.458 23.5938 367 22.0938Z" fill="#14213D"/>
<path d="M411.062 12.1875H412.781C413.74 12.1875 414.312 12.5729 414.5 13.3438L414.219 14.1875L414.781 17.375L414.5 19.0938L415.094 19.9375L414.781 20.25V21.6875C414.781 23.5 414.406 25.2188 413.656 26.8438V27.125C414.615 29.4792 415.094 31.3958 415.094 32.875L414.5 35.1875V38.3438L413.344 41.7812L413.656 43.8125L413.344 44.9688C413.885 44.9688 414.365 46.9792 414.781 51L415.094 52.4375L417.094 53.875V55.3125L416.531 55.875H412.781L410.781 56.4688L409.031 55.875V56.1562L407.312 55.5938H407.031L402.719 56.4688L401.281 56.1562L400.406 56.75C398.115 56.6042 396.969 56.3125 396.969 55.875C396.969 53.1875 397.74 51.8438 399.281 51.8438L401.562 47.8438C401.562 46.4896 400.99 44.8542 399.844 42.9375V42.6562L400.406 40.0625L400.125 34.9062L400.406 32.5938L400.125 31.75L401 27.4375L400.719 25.6875L401 23.9688L400.719 23.6875V23.4062L401 21.9688L400.719 20.8125L401 20.5312L400.125 19.6562L400.719 18.8125V18.5C400.719 18.1667 399.76 17.5 397.844 16.5L397.25 13.3438L398.969 12.75H400.125L401.281 13.625H401.562L401.844 13.3438L404.156 13.9062L409.031 13.3438V13.625L411.062 12.1875ZM417.969 12.75L420.531 13.3438H424C426.458 13.3438 428.177 14.0104 429.156 15.3438C430.219 15.3438 430.99 16.0208 431.469 17.375C432.156 17.375 432.917 18.5208 433.75 20.8125H434.062L433.469 28.2812L433.75 28.5625C433.333 28.6042 432 30.0417 429.75 32.875C428.854 32.875 427.51 33.8333 425.719 35.75V36.3438H427.438C431.292 36.3438 433.594 38.1562 434.344 41.7812L434.625 42.0938L434.344 43.5312L434.625 44.9688C434.292 45.3646 434 46.6979 433.75 48.9688C434.042 49.7396 434.333 50.125 434.625 50.125H434.906L438.656 48.9688L439.5 50.7188C437.021 54.3438 434.823 56.1562 432.906 56.1562C432.906 56.7396 432.708 57.0312 432.312 57.0312L430.875 56.75L429.438 57.0312C426.896 56.9688 424.219 55.4375 421.406 52.4375L421.125 50.125L421.406 48.125L420.25 45.25L420.812 43.5312C420.812 39.6979 420.052 37.7812 418.531 37.7812C417.76 37.7812 417.375 36.4375 417.375 33.75C419.104 33.2708 419.969 32.3125 419.969 30.875L420.812 26.2812L419.969 22.25L420.25 20.8125C420.25 18.9792 419.292 17.3542 417.375 15.9375L417.094 13.0625L417.969 12.75Z" fill="#14213D"/>
<path d="M444.125 12.1875C446.271 12.1875 448.01 12.6667 449.344 13.625C450.219 13.625 451.083 13.3333 451.938 12.75H455.125C460.125 13.3125 462.625 14.0833 462.625 15.0625C462.625 17.2292 463.875 18.9688 466.375 20.2812C467.521 22.3854 468.292 24.5938 468.688 26.9062L470.125 29.5L469.844 29.8125V30.6562C474.844 36.0521 477.344 40 477.344 42.5L477.062 42.7812V43.0938L477.344 44.5312L477.062 46.8438C477.833 46.8438 478.219 47.8958 478.219 50C478.219 52.125 477.927 53.2812 477.344 53.4688L477.625 53.75V54.625L477.062 55.5L477.344 56.375H477.062L475.594 56.9375C469.448 55.6667 466.375 53.9375 466.375 51.75C465.708 51.75 465.125 50.5938 464.625 48.2812C464.25 48.2812 464.062 47.8958 464.062 47.125C463.104 47.125 462.625 46.1562 462.625 44.2188C460.125 41.9271 458.875 39.9062 458.875 38.1562C458.583 38.1562 457.708 36.5208 456.25 33.25C455.75 33.25 455.083 31.9062 454.25 29.2188C453.062 28.9062 451.812 26.5 450.5 22C447 17.5833 444.781 15.375 443.844 15.375C443.281 15.375 442.802 14.9896 442.406 14.2188C443.552 13.2396 444.125 12.5625 444.125 12.1875ZM472.719 13.0625C473.781 13.0625 475.417 13.4479 477.625 14.2188H477.906L479.062 13.3438H480.219C481.677 13.3438 482.542 13.9167 482.812 15.0625C482.812 15.8333 482.24 16.3229 481.094 16.5312C481.094 16.8438 480.135 17.7083 478.219 19.125L477.906 21.4375L478.219 25.75L477.062 34.4062V35.875C475.521 34.9792 474.75 33.5312 474.75 31.5312L475.594 28.6562C475.031 27.6354 474.646 26 474.438 23.75L475.031 21.4375C475.031 20.9792 474.354 20.3021 473 19.4062L472.719 18.25L473 17.9688V16.2188L471 14.5V13.3438L472.719 13.0625ZM448.75 24.0312C449.417 25.0312 450.281 27.3438 451.344 30.9688V34.4062L450.781 35.5625L451.938 40.4688V40.7812C451.938 42.3854 451.552 44.6875 450.781 47.6875C451.156 47.6875 451.635 49.0417 452.219 51.75L452.5 52.0312H452.812L453.094 51.75H453.375C454.917 52.25 455.688 52.7292 455.688 53.1875V54.625L455.125 56.375L448.75 55.7812C447.604 55.8438 447.031 56.0417 447.031 56.375L445.875 55.7812L444.125 56.0625L443.562 55.5V54.0625C445.875 52.7917 447.031 51.1562 447.031 49.1562L447.594 48.2812L447.312 46.25L449.344 42.5V41.0625L447.312 35L447.594 30.6562H447.312L447.594 30.375V26.3438L447.906 26.0312L447.594 25.75V25.4688C447.969 24.5938 448.354 24.1146 448.75 24.0312Z" fill="#14213D"/>
</svg>
