<svg xmlns:dc="http://purl.org/dc/elements/1.1/" xmlns:cc="http://creativecommons.org/ns#" xmlns:rdf="http://www.w3.org/1999/02/22-rdf-syntax-ns#" xmlns:svg="http://www.w3.org/2000/svg" xmlns="http://www.w3.org/2000/svg" viewBox="0 0 128 128" fill="none"><metadata><rdf:RDF><cc:Work><dc:format>image/svg+xml</dc:format><dc:type rdf:resource="http://purl.org/dc/dcmitype/StillImage"/><dc:title>Croodles - Doodle your face</dc:title><dc:creator><cc:Agent><dc:title>vijay verma</dc:title></cc:Agent></dc:creator><dc:source>https://www.figma.com/community/file/966199982810283152</dc:source><cc:license rdf:resource="https://creativecommons.org/licenses/by/4.0/"/></cc:Work><cc:License rdf:about="https://creativecommons.org/licenses/by/4.0/"><cc:permits rdf:resource="https://creativecommons.org/ns#Reproduction"/><cc:permits rdf:resource="https://creativecommons.org/ns#Distribution"/><cc:permits rdf:resource="https://creativecommons.org/ns#DerivativeWorks"/><cc:requires rdf:resource="https://creativecommons.org/ns#Notice"/><cc:requires rdf:resource="https://creativecommons.org/ns#Attribution"/></cc:License></rdf:RDF></metadata><mask id="avatarsRadiusMask"><rect width="128" height="128" rx="0" ry="0" x="0" y="0" fill="#fff"/></mask><g mask="url(#avatarsRadiusMask)"><g transform="translate(7 4)"><g stroke="#000" stroke-width="3" stroke-linecap="round" stroke-linejoin="round"><path d="M26.833 19.11c1.286 1.158 4.672 2.392 8.595 1.737 3.428-.573 4.91-2.075 5.901-3.945M70.075 16.14c1.998 2.588 5.331 3.394 7.518 3.516 2.186.122 5.021-.772 7.184-1.931M4 20.484l13.684 8.495M48.232 32.81c5.142-3.299 17.622-3.305 20.454-1.837M96.88 28.655c2.544-1.323 10.581-7.782 13.124-9.613"/><path d="M22.564 45.956c-8.29-3.093-7.59-11.34-3.649-17.136 3.046-3.805 22.755-2.179 27.158 1.787 4.207 3.789 2.358 11.778-1.798 14.272-3.372 2.023-16.17 3.145-21.711 1.077ZM94.396 26.673c-3.606-1.126-18.195-1.052-23.903 2.613-3.86 2.478-6.58 14.713 3.514 16.066 4.614.619 14.882-.084 18.703-1.882 8.2-3.859 6.743-15.217 1.686-16.797Z"/><path d="M29.674 35.308c1.02-1.947 3.19-2.642 4.127-2.642 3.105 0 3.987 1.339 4.687 2.172M77.929 35.308c1.02-1.947 3.19-2.642 4.127-2.642 3.105 0 3.987 1.339 4.687 2.172"/></g></g><g transform="translate(47 46)"><path d="M13 43.803c3.666 0 8.537-1.535 9.228-5.918.602-3.812-5.617-3.21-7.322-7.523s-.893-17.67 0-23.362" stroke="#000" stroke-width="3" stroke-linecap="round" stroke-linejoin="round"/></g><g transform="translate(30 93)"><path d="M12 5.602c2.425 3.907 6.607 15.1 22.733 15.1S57.026 6.547 57.713 5" stroke="#000" stroke-width="3" stroke-linecap="round" stroke-linejoin="round"/></g></g></svg>