<svg width="46" height="46" viewBox="0 0 46 46" fill="none" xmlns="http://www.w3.org/2000/svg">
<path d="M41.6874 22.9999C41.6781 27.5655 40.0025 31.9708 36.9752 35.3885C33.9479 38.8062 29.7771 41.0013 25.246 41.5616C25.1448 41.5715 25.0428 41.5604 24.9461 41.529C24.8495 41.4976 24.7604 41.4465 24.6845 41.379C24.6086 41.3115 24.5474 41.229 24.5049 41.1368C24.4623 41.0445 24.4394 40.9444 24.4374 40.8428V27.3124H28.7499C28.9465 27.3127 29.141 27.2728 29.3216 27.195C29.5021 27.1172 29.6647 27.0032 29.7995 26.8601C29.9342 26.7169 30.0381 26.5477 30.1049 26.3628C30.1716 26.1778 30.1997 25.9812 30.1874 25.785C30.1556 25.4133 29.984 25.0675 29.7072 24.8174C29.4304 24.5673 29.069 24.4315 28.696 24.4374H24.4374V20.1249C24.4374 19.3624 24.7403 18.6311 25.2794 18.0919C25.8186 17.5528 26.5499 17.2499 27.3124 17.2499H30.1874C30.384 17.2502 30.5785 17.2103 30.7591 17.1325C30.9396 17.0547 31.1022 16.9407 31.237 16.7976C31.3717 16.6544 31.4756 16.4852 31.5424 16.3003C31.6091 16.1153 31.6372 15.9187 31.6249 15.7225C31.5931 15.3508 31.4215 15.005 31.1447 14.7549C30.8679 14.5048 30.5065 14.369 30.1335 14.3749H27.3124C25.7874 14.3749 24.3248 14.9807 23.2465 16.059C22.1682 17.1373 21.5624 18.5999 21.5624 20.1249V24.4374H17.2499C17.0533 24.437 16.8587 24.4769 16.6782 24.5547C16.4977 24.6325 16.335 24.7465 16.2003 24.8897C16.0655 25.0328 15.9616 25.2021 15.8949 25.387C15.8282 25.5719 15.8001 25.7685 15.8124 25.9647C15.8442 26.3364 16.0158 26.6822 16.2926 26.9323C16.5694 27.1825 16.9308 27.3183 17.3038 27.3124H21.5624V40.8428C21.5629 40.9436 21.5422 41.0433 21.5017 41.1356C21.4611 41.2278 21.4017 41.3105 21.3271 41.3783C21.2526 41.446 21.1646 41.4974 21.0689 41.529C20.9732 41.5605 20.872 41.5717 20.7717 41.5616C11.2842 40.4116 3.953 32.1639 4.33034 22.2991C4.54216 17.4274 6.64984 12.8314 10.2035 9.49223C13.7571 6.15305 18.4752 4.33517 23.3507 4.42663C28.2262 4.51809 32.8728 6.51164 36.2987 9.98175C39.7246 13.4519 41.6584 18.1236 41.6874 22.9999Z" fill="url(#paint0_linear_425_122)"/>
<defs>
<linearGradient id="paint0_linear_425_122" x1="23.0019" y1="4.42334" x2="23.0019" y2="41.5652" gradientUnits="userSpaceOnUse">
<stop stop-color="#40E0D0"/>
<stop offset="0.0001" stop-color="#A9DBB8"/>
<stop offset="0.973958" stop-color="#40E0D0"/>
</linearGradient>
</defs>
</svg>
