<svg width="49" height="38" viewBox="0 0 49 38" fill="none" xmlns="http://www.w3.org/2000/svg">
<path d="M42 15.9999H44.67C45.236 15.9899 45.7859 16.188 46.2154 16.5567C46.645 16.9254 46.9242 17.4389 47 17.9999V24.9999C46.9242 25.5608 46.645 26.0744 46.2154 26.4431C45.7859 26.8117 45.236 27.0099 44.67 26.9999H42M35 28.9999V32.9999C35 33.7955 35.3161 34.5586 35.8787 35.1212C36.4413 35.6838 37.2044 35.9999 38 35.9999L42 26.9999V15.9999H30.72C30.2377 15.9944 29.7697 16.1635 29.4021 16.4759C29.0346 16.7883 28.7924 17.223 28.72 17.6999L27.34 26.6999C27.2965 26.9865 27.3159 27.2792 27.3967 27.5576C27.4775 27.8361 27.6179 28.0936 27.8082 28.3124C27.9984 28.5311 28.234 28.7059 28.4985 28.8247C28.763 28.9434 29.0501 29.0032 29.34 28.9999H35Z" stroke="black" stroke-width="2" stroke-linecap="round" stroke-linejoin="round"/>
<path d="M6 21H3C2.46957 21 1.96086 20.7893 1.58579 20.4142C1.21071 20.0391 1 19.5304 1 19V12C1 11.4696 1.21071 10.9609 1.58579 10.5858C1.96086 10.2107 2.46957 10 3 10H6M13 8V4C13 3.20435 12.6839 2.44129 12.1213 1.87868C11.5587 1.31607 10.7956 1 10 1L6 10V21H17.28C17.7623 21.0055 18.2304 20.8364 18.5979 20.524C18.9654 20.2116 19.2077 19.7769 19.28 19.3L20.66 10.3C20.7035 10.0134 20.6842 9.72068 20.6033 9.44225C20.5225 9.16382 20.3821 8.90629 20.1919 8.68751C20.0016 8.46873 19.7661 8.29393 19.5016 8.17522C19.2371 8.0565 18.9499 7.99672 18.66 8H13Z" stroke="black" stroke-width="2" stroke-linecap="round" stroke-linejoin="round"/>
</svg>
