<svg width="598" height="375" viewBox="0 0 598 375" fill="none" xmlns="http://www.w3.org/2000/svg">
<path d="M275.954 93.6988C-7.6463 36.4988 -41.5465 272.699 35.9537 374.199H573.954C597.554 305.399 564.12 258.865 544.454 244.199C512.854 218.599 518.62 176.865 525.454 159.199C573.954 -59.3013 328.453 -24.3014 275.954 93.6988Z" fill="#D6F8F5"/>
<path d="M131.201 263.85C160.001 249.45 170.201 257.85 171.701 263.85L169.201 347.35C159.601 358.55 154.868 355.684 153.701 352.85C150.501 340.85 155.034 331.184 157.701 327.85C164.343 319.85 166.135 312.517 166.201 309.85C164.601 307.45 157.201 315.85 153.701 320.35C150.501 324.35 149.368 336.017 149.201 341.35C145.201 366.55 116.534 362.85 102.701 357.85C107.868 349.684 118.001 332.25 117.201 327.85C116.401 323.45 101.201 340.684 93.701 349.85C89.3011 354.65 82.5344 353.85 79.7011 352.85C45.7636 337.424 60.8446 313.322 73.7702 302.053C74.665 301.273 75.8685 300.987 77.0377 301.192C91.5133 303.732 113.971 304.205 120.201 300.85C126.352 297.538 98.5344 291.017 86.7011 290.35C87.9011 283.95 113.201 270.017 125.701 263.85C136.034 272.85 157.101 289.55 158.701 284.35C160.301 279.15 141.034 268.517 131.201 263.85Z" fill="#40E0D0"/>
<path d="M171.606 150.209C194.654 162.164 194.012 172.799 190.81 176.623L145.426 211.35C131.701 212.85 124.406 206.955 125.701 204.85C132.01 197.073 138.993 197.681 142.432 197.84C150.799 198.378 156.431 196.07 158.202 194.848C159.008 192.667 150.021 191.824 145.426 191.675C141.3 191.485 133.154 196.278 129.597 198.698C111.265 208.039 100.085 187.588 96.786 176.195C104.562 175.692 120.737 174.035 123.227 171.426C125.718 168.818 107.271 167.077 97.7358 166.532C92.5189 165.939 89.832 161.146 89.1406 158.824C83.1607 129.63 105.586 127.812 119.106 130.79C120.265 131.045 121.202 131.853 121.728 132.917C126.986 143.537 137.169 158.133 142.259 160.58C147.335 163.021 138.398 141.786 133.222 133.753C137.965 131.501 159.049 141.394 168.998 146.622C168.028 157.629 167.126 179.287 171.276 177.865C175.426 176.443 173.225 158.835 171.606 150.209Z" fill="#40E0D0"/>
<path d="M413.901 202.737C380.826 228.454 365.656 220.388 362.205 213.14L341.854 123.453C348.906 102.362 362.473 95.6383 364.687 98.9431C371.843 113.387 366.243 123.199 363.693 128.125C357.262 140.008 356.852 149.798 357.451 153.207C360.107 155.849 367.403 143.262 370.718 136.639C373.779 130.728 372.239 115.595 371.087 108.767C369.741 75.6808 407.28 73.0249 426.218 75.8328C421.713 87.5493 413.241 112.33 415.389 117.722C417.536 123.114 432.527 97.2866 439.753 83.6986C444.141 76.462 452.983 75.7418 456.856 76.2862C504.527 87.2873 490.816 122.32 477.081 139.833C476.35 140.765 475.228 141.283 474.044 141.307C454.924 141.705 425.634 146.916 418.471 152.842C411.468 158.635 448.644 159.786 463.92 157.595C464.026 166.045 435.299 190.269 420.922 201.325C405.428 192.529 374.263 176.695 373.551 183.721C372.84 190.747 400.155 199.326 413.901 202.737Z" fill="#40E0D0"/>
<path d="M406 40.5L385 55L401.5 32L406 40.5Z" fill="white"/>
<path d="M406.5 43.5L405.5 41L386 55L417 50.5L415.5 46.5L406.5 43.5Z" fill="#38C9BA"/>
<path d="M411.5 41L385 55L438.5 39.5L411.5 41Z" fill="white"/>
<rect x="166" y="48" width="196" height="326" rx="17" fill="black"/>
<path d="M173 72C173 62.6112 180.611 55 190 55H338C347.389 55 355 62.6112 355 72V348H173V72Z" fill="white"/>
<path d="M173 72C173 62.6112 180.611 55 190 55H338C347.389 55 355 62.6112 355 72V175H173V72Z" fill="white"/>
<path d="M173 348H355V175H173V348Z" fill="#65FFF0" fill-opacity="0.8"/>
<rect x="228" y="48" width="71" height="17" rx="8.5" fill="black"/>
<rect x="142" y="185" width="172" height="61" rx="8" fill="white"/>
<rect x="203" y="256" width="98" height="35" rx="6" fill="#40E0D0"/>
<rect x="235" y="301" width="98" height="35" rx="6" fill="white"/>
<line x1="214" y1="263.124" x2="243.647" y2="263.124" stroke="white" stroke-width="3"/>
<line x1="215.482" y1="274.741" x2="235.494" y2="274.741" stroke="white" stroke-width="2"/>
<line x1="247.353" y1="263.124" x2="277" y2="263.124" stroke="white" stroke-width="3"/>
<line x1="237.718" y1="274.741" x2="247.353" y2="274.741" stroke="white" stroke-width="2"/>
<line y1="-1" x2="9.63529" y2="-1" transform="matrix(-1 0 0 1 256.988 280.929)" stroke="white" stroke-width="2"/>
<line x1="231.047" y1="286.376" x2="216.224" y2="286.376" stroke="white" stroke-width="2"/>
<line x1="250.318" y1="274.741" x2="274.776" y2="274.741" stroke="white" stroke-width="2"/>
<line y1="-1" x2="24.4588" y2="-1" transform="matrix(-1 0 0 1 239.941 280.929)" stroke="white" stroke-width="2"/>
<line x1="201" y1="199.5" x2="239.924" y2="199.5" stroke="#D9D9D9" stroke-width="3"/>
<line x1="202.946" y1="214.597" x2="229.22" y2="214.597" stroke="#D9D9D9" stroke-width="2"/>
<line x1="244.79" y1="199.5" x2="283.714" y2="199.5" stroke="#D9D9D9" stroke-width="3"/>
<line x1="232.139" y1="214.597" x2="244.79" y2="214.597" stroke="#D9D9D9" stroke-width="2"/>
<line y1="-1" x2="12.6504" y2="-1" transform="matrix(-1 0 0 1 257.44 222.408)" stroke="#D9D9D9" stroke-width="2"/>
<line x1="223.382" y1="229.247" x2="203.919" y2="229.247" stroke="#D9D9D9" stroke-width="2"/>
<line x1="248.682" y1="214.597" x2="280.795" y2="214.597" stroke="#D9D9D9" stroke-width="2"/>
<line y1="-1" x2="32.1126" y2="-1" transform="matrix(-1 0 0 1 235.059 222.408)" stroke="#D9D9D9" stroke-width="2"/>
<line x1="244" y1="308.5" x2="273.647" y2="308.5" stroke="#E1E1E1" stroke-width="3"/>
<line x1="245.482" y1="320.118" x2="265.494" y2="320.118" stroke="#E1E1E1" stroke-width="2"/>
<line x1="277.353" y1="308.5" x2="307" y2="308.5" stroke="#E1E1E1" stroke-width="3"/>
<line x1="267.718" y1="320.118" x2="277.353" y2="320.118" stroke="#E1E1E1" stroke-width="2"/>
<line y1="-1" x2="9.63529" y2="-1" transform="matrix(-1 0 0 1 286.988 326.306)" stroke="#E1E1E1" stroke-width="2"/>
<line x1="261.047" y1="331.753" x2="246.224" y2="331.753" stroke="#E1E1E1" stroke-width="2"/>
<line x1="280.318" y1="320.118" x2="304.776" y2="320.118" stroke="#E1E1E1" stroke-width="2"/>
<line y1="-1" x2="24.4588" y2="-1" transform="matrix(-1 0 0 1 269.941 326.306)" stroke="#E1E1E1" stroke-width="2"/>
<circle cx="260.5" cy="91.5" r="2.5" fill="black"/>
<circle cx="286.5" cy="91.5" r="2.5" fill="black"/>
<line x1="260.5" y1="79.5" x2="260.5" y2="91.5" stroke="black" stroke-linecap="round"/>
<line x1="286.5" y1="79.5" x2="286.5" y2="91.5" stroke="black" stroke-linecap="round"/>
<rect x="233" y="92" width="58" height="31" rx="5" fill="#38C9BA"/>
<path d="M287.5 125C287.5 126.623 286.07 128.248 283.395 129.497C280.761 130.726 277.086 131.5 273 131.5C268.914 131.5 265.239 130.726 262.605 129.497C259.93 128.248 258.5 126.623 258.5 125C258.5 123.377 259.93 121.752 262.605 120.503C265.239 119.274 268.914 118.5 273 118.5C277.086 118.5 280.761 119.274 283.395 120.503C286.07 121.752 287.5 123.377 287.5 125Z" stroke="#40E0D0"/>
<rect x="245" y="92" width="58" height="31" rx="5" fill="#40E0D0"/>
<rect x="251" y="99" width="46" height="8" fill="#A9DBB8"/>
<path fill-rule="evenodd" clip-rule="evenodd" d="M265 113C265.744 115.7 269.806 117.764 274.705 117.764C279.604 117.764 283.665 115.7 284.409 113H265Z" fill="white"/>
<path d="M233 131C233 128.239 235.239 126 238 126H286C288.761 126 291 128.239 291 131V175H233V131Z" fill="#38C9BA"/>
<rect x="268" y="123" width="16" height="13" fill="#99EFB3"/>
<line x1="321.121" y1="151.962" x2="325.11" y2="155.813" stroke="black" stroke-width="3" stroke-linecap="round"/>
<rect x="261" y="123" width="7" height="13" fill="#A9DBB8"/>
<path d="M245 131C245 128.239 247.239 126 250 126H298C300.761 126 303 128.239 303 131V175H245V131Z" fill="#40E0D0"/>
<path d="M205.119 114.021C212.319 132.821 228.119 143.188 235.119 146.021C245.119 147.021 243.619 136.021 239.119 133.521C229.519 130.321 220.785 117.188 217.619 111.021C212.119 103.021 204.119 108.521 205.119 114.021Z" fill="#A9DBB8"/>
<path d="M205.119 114.021C212.319 132.821 228.119 143.188 235.119 146.021C245.119 147.021 242.119 137.521 237.619 135.021C228.019 131.821 218.285 119.188 215.119 113.021C209.619 105.021 204.119 108.521 205.119 114.021Z" fill="#99EFB3"/>
<path d="M323.5 148.5C321.1 142.9 308.833 137.167 303 135V147C305.8 147.8 310.833 152 313 154C322.6 158.8 324 152.333 323.5 148.5Z" fill="#A9DBB8"/>
<path d="M307.087 142.5C305.462 140.9 305.394 137.5 305.563 136C317.348 140.8 323.201 146.015 323.5 149C324 154 321 155.5 320.294 155C317.855 155 313.86 149.667 312.167 147C312.167 146.6 308.78 143.833 307.087 142.5Z" fill="#99EFB3"/>
<line x1="209.465" y1="103.956" x2="211.411" y2="109.147" stroke="black" stroke-width="3" stroke-linecap="round"/>
<path d="M207.9 102.595C205.164 102.422 203.165 100.714 201.991 99.1551C201.285 98.2183 200.348 97.1624 199.21 97.4437C198.314 97.6649 198.026 98.4121 198.002 99.0711C197.989 99.4088 198.102 99.7386 198.25 100.043C201.366 106.459 207.194 106.561 210.13 105.708C210.402 105.629 210.66 105.503 210.896 105.347C216.097 101.901 215.391 96.7664 213.846 93.5189C213.391 92.5609 212.398 91.7918 211.397 92.1434C211.087 92.2526 210.835 92.4152 210.636 92.5992C210.077 93.1152 210.168 93.9605 210.385 94.6895C211.643 98.9116 211.169 100.595 209.901 101.847C209.373 102.369 208.64 102.642 207.9 102.595Z" fill="black" stroke="black"/>
<path d="M327 157C328.509 155.492 330.681 156.353 332.229 157.44C333.098 158.05 334.162 158.656 335.113 158.186C335.224 158.132 335.322 158.072 335.409 158.008C336.047 157.543 336.185 156.531 335.72 155.892C334.094 153.657 327.322 150.016 324 155C321.173 159.24 323.341 163.792 325.263 166.175C325.718 166.739 326.434 167.254 327.083 166.931C327.34 166.803 327.531 166.593 327.67 166.349C328.121 165.56 327.668 164.627 327.184 163.858C325.032 160.433 326.098 157.902 327 157Z" fill="black" stroke="black"/>
<rect x="256" y="102.214" width="0.830141" height="0.830141" fill="white"/>
<rect x="257.218" y="102.214" width="0.830141" height="0.830141" fill="white"/>
<rect x="257.218" y="103.321" width="0.830141" height="0.830141" fill="white"/>
<rect width="0.830141" height="0.830141" transform="matrix(1 0 0 -1 257.218 101.937)" fill="white"/>
<rect x="258.435" y="102.214" width="0.830141" height="0.830141" fill="white"/>
<rect x="258.435" y="103.321" width="0.830141" height="0.830141" fill="white"/>
<rect width="0.830141" height="0.830141" transform="matrix(1 0 0 -1 258.435 101.937)" fill="white"/>
<rect x="258.435" y="104.427" width="0.830141" height="0.830141" fill="white"/>
<rect width="0.830141" height="0.830141" transform="matrix(1 0 0 -1 258.435 100.83)" fill="white"/>
<rect x="259.653" y="102.214" width="0.830141" height="0.830141" fill="white"/>
<rect x="259.653" y="103.321" width="0.830141" height="0.830141" fill="white"/>
<rect width="0.830141" height="0.830141" transform="matrix(1 0 0 -1 259.653 101.937)" fill="white"/>
<rect x="260.87" y="102.214" width="0.830141" height="0.830141" fill="white"/>
<rect x="286" y="102.214" width="0.830141" height="0.830141" fill="white"/>
<rect x="287.218" y="102.214" width="0.830141" height="0.830141" fill="white"/>
<rect x="287.218" y="103.321" width="0.830141" height="0.830141" fill="white"/>
<rect width="0.830141" height="0.830141" transform="matrix(1 0 0 -1 287.218 101.937)" fill="white"/>
<rect x="288.435" y="102.214" width="0.830141" height="0.830141" fill="white"/>
<rect x="288.435" y="103.321" width="0.830141" height="0.830141" fill="white"/>
<rect width="0.830141" height="0.830141" transform="matrix(1 0 0 -1 288.435 101.937)" fill="white"/>
<rect x="288.435" y="104.427" width="0.830141" height="0.830141" fill="white"/>
<rect width="0.830141" height="0.830141" transform="matrix(1 0 0 -1 288.435 100.83)" fill="white"/>
<rect x="289.653" y="102.214" width="0.830141" height="0.830141" fill="white"/>
<rect x="289.653" y="103.321" width="0.830141" height="0.830141" fill="white"/>
<rect width="0.830141" height="0.830141" transform="matrix(1 0 0 -1 289.653 101.937)" fill="white"/>
<rect x="290.87" y="102.214" width="0.830141" height="0.830141" fill="white"/>
<path d="M252.915 133.823H253.091C253.273 133.823 253.429 133.888 253.56 134.019C253.69 134.146 253.755 134.3 253.755 134.482C253.755 134.671 253.688 134.829 253.555 134.956C253.424 135.083 253.27 135.146 253.091 135.146H252.915C252.733 135.146 252.576 135.083 252.446 134.956C252.316 134.826 252.251 134.67 252.251 134.487C252.251 134.299 252.316 134.141 252.446 134.014C252.58 133.887 252.736 133.823 252.915 133.823Z" fill="black"/>
<path d="M256.915 133.823H257.091C257.273 133.823 257.429 133.888 257.56 134.019C257.69 134.146 257.755 134.3 257.755 134.482C257.755 134.671 257.688 134.829 257.555 134.956C257.424 135.083 257.27 135.146 257.091 135.146H256.915C256.733 135.146 256.576 135.083 256.446 134.956C256.316 134.826 256.251 134.67 256.251 134.487C256.251 134.299 256.316 134.141 256.446 134.014C256.58 133.887 256.736 133.823 256.915 133.823Z" fill="black"/>
<path d="M260.915 133.823H261.091C261.273 133.823 261.429 133.888 261.56 134.019C261.69 134.146 261.755 134.3 261.755 134.482C261.755 134.671 261.688 134.829 261.555 134.956C261.424 135.083 261.27 135.146 261.091 135.146H260.915C260.733 135.146 260.576 135.083 260.446 134.956C260.316 134.826 260.251 134.67 260.251 134.487C260.251 134.299 260.316 134.141 260.446 134.014C260.58 133.887 260.736 133.823 260.915 133.823Z" fill="black"/>
<circle cx="331" cy="273" r="20" fill="white"/>
<path d="M348.133 283.5L346.133 286L320.133 283C314.905 274.984 320.306 264.994 325.42 259.91C326.769 258.569 328.657 258 330.56 258H331.633C337.757 258 340.456 264.028 341.332 268.394C341.609 269.777 341.373 271.201 341.404 272.612C341.456 275.001 342.486 277.094 343.133 278L348.133 283.5Z" fill="#233863"/>
<path d="M335.133 279.5C334.333 279.5 334.466 275.5 334.633 273.5L327.633 276V280C329.633 282.8 333.466 280.833 335.133 279.5Z" fill="#FFB27E"/>
<path d="M327.633 278.5C330.433 278.9 332.466 276 333.133 274.5L327.633 275.5V278.5Z" fill="#EC985C"/>
<path d="M325.82 275.923C323.489 271.29 325.353 266.42 326.633 264.5C328 265.5 330 270.5 335.633 270L335.133 272.5C334.761 274.729 329.761 275.98 326.781 276.414C326.387 276.472 325.999 276.279 325.82 275.923Z" fill="#FFB27E"/>
<path d="M344.633 283L346.133 286.5C335.333 297.3 323.299 292.333 318.633 288.5C319.133 283 321.133 283 321.133 282.5C321.133 282.1 325.5 280.667 327.5 280C330 282.5 333 281 335 279.5C339 279.5 343.466 281.833 344.633 283Z" fill="#40E0D0"/>
<circle cx="173" cy="215" r="20" fill="#D6F8F5"/>
<circle cx="170.425" cy="204.13" r="1.425" fill="black"/>
<circle cx="180.425" cy="204.13" r="1.425" fill="black"/>
<line x1="170.5" y1="199.5" x2="170.5" y2="203.317" stroke="black" stroke-linecap="round"/>
<line x1="180.5" y1="199.5" x2="180.5" y2="203.317" stroke="black" stroke-linecap="round"/>
<rect x="160" y="203.817" width="21.491" height="11.4866" rx="2" fill="#38C9BA"/>
<path d="M179.879 216.045C179.879 216.451 179.507 216.975 178.54 217.426C177.614 217.858 176.3 218.138 174.821 218.138C173.343 218.138 172.029 217.858 171.103 217.426C170.136 216.975 169.763 216.451 169.763 216.045C169.763 215.638 170.136 215.115 171.103 214.664C172.029 214.232 173.343 213.951 174.821 213.951C176.3 213.951 177.614 214.232 178.54 214.664C179.507 215.115 179.879 215.638 179.879 216.045Z" stroke="#40E0D0"/>
<rect x="164.446" y="203.817" width="21.491" height="11.4866" rx="2" fill="#40E0D0"/>
<rect x="166.67" y="206.411" width="17.0446" height="2.96427" fill="#A9DBB8"/>
<path fill-rule="evenodd" clip-rule="evenodd" d="M171.857 211.598C172.133 212.599 173.638 213.364 175.453 213.364C177.268 213.364 178.773 212.599 179.049 211.598H171.857Z" fill="white"/>
<path d="M160 218.415C160 217.311 160.895 216.415 162 216.415H179.553C180.633 216.415 181.518 217.272 181.552 218.352L182 232.5L180.011 233.415C178.35 234.18 176.568 234.651 174.746 234.807V234.807C173.256 234.935 171.756 234.851 170.29 234.558L169.311 234.362C168.106 234.121 166.922 233.783 165.771 233.352L165.494 233.248C164.167 232.75 162.882 232.147 161.651 231.444L160 230.5V218.415Z" fill="#38C9BA"/>
<rect x="172.969" y="215.303" width="5.92854" height="4.81694" fill="#99EFB3"/>
<rect x="170.375" y="215.303" width="2.59374" height="4.81694" fill="#A9DBB8"/>
<path d="M164.446 218.415C164.446 217.311 165.342 216.415 166.446 216.415H183.937C185.042 216.415 185.937 217.311 185.937 218.415V230.5L184.173 231.62C182.73 232.537 181.18 233.273 179.558 233.814L179.29 233.903C178.1 234.3 176.873 234.578 175.627 234.734V234.734C174.214 234.911 172.784 234.928 171.367 234.787L171.162 234.766C169.395 234.589 167.657 234.188 165.991 233.572L164.446 233V218.415Z" fill="#40E0D0"/>
<rect x="168.522" y="207.602" width="0.307595" height="0.307595" fill="white"/>
<rect x="168.973" y="207.602" width="0.307595" height="0.307595" fill="white"/>
<rect x="168.973" y="208.012" width="0.307595" height="0.307595" fill="white"/>
<rect width="0.307595" height="0.307595" transform="matrix(1 0 0 -1 168.973 207.499)" fill="white"/>
<rect x="169.424" y="207.602" width="0.307595" height="0.307595" fill="white"/>
<rect x="169.424" y="208.012" width="0.307595" height="0.307595" fill="white"/>
<rect width="0.307595" height="0.307595" transform="matrix(1 0 0 -1 169.424 207.499)" fill="white"/>
<rect x="169.424" y="208.422" width="0.307595" height="0.307595" fill="white"/>
<rect width="0.307595" height="0.307595" transform="matrix(1 0 0 -1 169.424 207.089)" fill="white"/>
<rect x="169.875" y="207.602" width="0.307595" height="0.307595" fill="white"/>
<rect x="169.875" y="208.012" width="0.307595" height="0.307595" fill="white"/>
<rect width="0.307595" height="0.307595" transform="matrix(1 0 0 -1 169.875 207.499)" fill="white"/>
<rect x="170.327" y="207.602" width="0.307595" height="0.307595" fill="white"/>
<rect x="179.638" y="207.602" width="0.307595" height="0.307595" fill="white"/>
<rect x="180.089" y="207.602" width="0.307595" height="0.307595" fill="white"/>
<rect x="180.089" y="208.012" width="0.307595" height="0.307595" fill="white"/>
<rect width="0.307595" height="0.307595" transform="matrix(1 0 0 -1 180.089 207.499)" fill="white"/>
<rect x="180.54" y="207.602" width="0.307595" height="0.307595" fill="white"/>
<rect x="180.54" y="208.012" width="0.307595" height="0.307595" fill="white"/>
<rect width="0.307595" height="0.307595" transform="matrix(1 0 0 -1 180.54 207.499)" fill="white"/>
<rect x="180.54" y="208.422" width="0.307595" height="0.307595" fill="white"/>
<rect width="0.307595" height="0.307595" transform="matrix(1 0 0 -1 180.54 207.089)" fill="white"/>
<rect x="180.992" y="207.602" width="0.307595" height="0.307595" fill="white"/>
<rect x="180.992" y="208.012" width="0.307595" height="0.307595" fill="white"/>
<rect width="0.307595" height="0.307595" transform="matrix(1 0 0 -1 180.992 207.499)" fill="white"/>
<rect x="181.443" y="207.602" width="0.307595" height="0.307595" fill="white"/>
<path d="M166.583 218.765H166.618C166.655 218.765 166.686 218.778 166.712 218.804C166.738 218.829 166.751 218.86 166.751 218.896C166.751 218.934 166.738 218.966 166.711 218.991C166.685 219.017 166.654 219.029 166.618 219.029H166.583C166.547 219.029 166.515 219.017 166.489 218.991C166.463 218.965 166.45 218.934 166.45 218.897C166.45 218.86 166.463 218.828 166.489 218.803C166.516 218.777 166.547 218.765 166.583 218.765Z" fill="black"/>
<path d="M167.583 218.765H167.618C167.655 218.765 167.686 218.778 167.712 218.804C167.738 218.829 167.751 218.86 167.751 218.896C167.751 218.934 167.738 218.966 167.711 218.991C167.685 219.017 167.654 219.029 167.618 219.029H167.583C167.547 219.029 167.515 219.017 167.489 218.991C167.463 218.965 167.45 218.934 167.45 218.897C167.45 218.86 167.463 218.828 167.489 218.803C167.516 218.777 167.547 218.765 167.583 218.765Z" fill="black"/>
<path d="M168.583 218.765H168.618C168.655 218.765 168.686 218.778 168.712 218.804C168.738 218.829 168.751 218.86 168.751 218.896C168.751 218.934 168.738 218.966 168.711 218.991C168.685 219.017 168.654 219.029 168.618 219.029H168.583C168.547 219.029 168.515 219.017 168.489 218.991C168.463 218.965 168.45 218.934 168.45 218.897C168.45 218.86 168.463 218.828 168.489 218.803C168.516 218.777 168.547 218.765 168.583 218.765Z" fill="black"/>
<circle cx="203" cy="321" r="20" fill="white"/>
<circle cx="200.425" cy="310.13" r="1.425" fill="black"/>
<circle cx="210.425" cy="310.13" r="1.425" fill="black"/>
<line x1="200.5" y1="305.5" x2="200.5" y2="309.317" stroke="black" stroke-linecap="round"/>
<line x1="210.5" y1="305.5" x2="210.5" y2="309.317" stroke="black" stroke-linecap="round"/>
<rect x="190" y="309.817" width="21.491" height="11.4866" rx="2" fill="#38C9BA"/>
<path d="M209.879 322.045C209.879 322.451 209.507 322.975 208.54 323.426C207.614 323.858 206.3 324.138 204.821 324.138C203.343 324.138 202.029 323.858 201.103 323.426C200.136 322.975 199.763 322.451 199.763 322.045C199.763 321.638 200.136 321.115 201.103 320.664C202.029 320.232 203.343 319.951 204.821 319.951C206.3 319.951 207.614 320.232 208.54 320.664C209.507 321.115 209.879 321.638 209.879 322.045Z" stroke="#40E0D0"/>
<rect x="194.446" y="309.817" width="21.491" height="11.4866" rx="2" fill="#40E0D0"/>
<rect x="196.67" y="312.411" width="17.0446" height="2.96427" fill="#A9DBB8"/>
<path fill-rule="evenodd" clip-rule="evenodd" d="M201.857 317.598C202.133 318.599 203.638 319.364 205.453 319.364C207.268 319.364 208.773 318.599 209.049 317.598H201.857Z" fill="white"/>
<path d="M190 324.415C190 323.311 190.895 322.415 192 322.415H209.553C210.633 322.415 211.518 323.272 211.552 324.352L212 338.5L210.011 339.415C208.35 340.18 206.568 340.651 204.746 340.807V340.807C203.256 340.935 201.756 340.851 200.29 340.558L199.311 340.362C198.106 340.121 196.922 339.783 195.771 339.352L195.494 339.248C194.167 338.75 192.882 338.147 191.651 337.444L190 336.5V324.415Z" fill="#38C9BA"/>
<rect x="202.969" y="321.303" width="5.92854" height="4.81694" fill="#99EFB3"/>
<rect x="200.375" y="321.303" width="2.59374" height="4.81694" fill="#A9DBB8"/>
<path d="M194.446 324.415C194.446 323.311 195.342 322.415 196.446 322.415H213.937C215.042 322.415 215.937 323.311 215.937 324.415V336.5L214.173 337.62C212.73 338.537 211.18 339.273 209.558 339.814L209.29 339.903C208.1 340.3 206.873 340.578 205.627 340.734V340.734C204.214 340.911 202.784 340.928 201.367 340.787L201.162 340.766C199.395 340.589 197.657 340.188 195.991 339.572L194.446 339V324.415Z" fill="#40E0D0"/>
<rect x="198.522" y="313.602" width="0.307595" height="0.307595" fill="white"/>
<rect x="198.973" y="313.602" width="0.307595" height="0.307595" fill="white"/>
<rect x="198.973" y="314.012" width="0.307595" height="0.307595" fill="white"/>
<rect width="0.307595" height="0.307595" transform="matrix(1 0 0 -1 198.973 313.499)" fill="white"/>
<rect x="199.424" y="313.602" width="0.307595" height="0.307595" fill="white"/>
<rect x="199.424" y="314.012" width="0.307595" height="0.307595" fill="white"/>
<rect width="0.307595" height="0.307595" transform="matrix(1 0 0 -1 199.424 313.499)" fill="white"/>
<rect x="199.424" y="314.422" width="0.307595" height="0.307595" fill="white"/>
<rect width="0.307595" height="0.307595" transform="matrix(1 0 0 -1 199.424 313.089)" fill="white"/>
<rect x="199.875" y="313.602" width="0.307595" height="0.307595" fill="white"/>
<rect x="199.875" y="314.012" width="0.307595" height="0.307595" fill="white"/>
<rect width="0.307595" height="0.307595" transform="matrix(1 0 0 -1 199.875 313.499)" fill="white"/>
<rect x="200.327" y="313.602" width="0.307595" height="0.307595" fill="white"/>
<rect x="209.638" y="313.602" width="0.307595" height="0.307595" fill="white"/>
<rect x="210.089" y="313.602" width="0.307595" height="0.307595" fill="white"/>
<rect x="210.089" y="314.012" width="0.307595" height="0.307595" fill="white"/>
<rect width="0.307595" height="0.307595" transform="matrix(1 0 0 -1 210.089 313.499)" fill="white"/>
<rect x="210.54" y="313.602" width="0.307595" height="0.307595" fill="white"/>
<rect x="210.54" y="314.012" width="0.307595" height="0.307595" fill="white"/>
<rect width="0.307595" height="0.307595" transform="matrix(1 0 0 -1 210.54 313.499)" fill="white"/>
<rect x="210.54" y="314.422" width="0.307595" height="0.307595" fill="white"/>
<rect width="0.307595" height="0.307595" transform="matrix(1 0 0 -1 210.54 313.089)" fill="white"/>
<rect x="210.992" y="313.602" width="0.307595" height="0.307595" fill="white"/>
<rect x="210.992" y="314.012" width="0.307595" height="0.307595" fill="white"/>
<rect width="0.307595" height="0.307595" transform="matrix(1 0 0 -1 210.992 313.499)" fill="white"/>
<rect x="211.443" y="313.602" width="0.307595" height="0.307595" fill="white"/>
<path d="M196.583 324.765H196.618C196.655 324.765 196.686 324.778 196.712 324.804C196.738 324.829 196.751 324.86 196.751 324.896C196.751 324.934 196.738 324.966 196.711 324.991C196.685 325.017 196.654 325.029 196.618 325.029H196.583C196.547 325.029 196.515 325.017 196.489 324.991C196.463 324.965 196.45 324.934 196.45 324.897C196.45 324.86 196.463 324.828 196.489 324.803C196.516 324.777 196.547 324.765 196.583 324.765Z" fill="black"/>
<path d="M197.583 324.765H197.618C197.655 324.765 197.686 324.778 197.712 324.804C197.738 324.829 197.751 324.86 197.751 324.896C197.751 324.934 197.738 324.966 197.711 324.991C197.685 325.017 197.654 325.029 197.618 325.029H197.583C197.547 325.029 197.515 325.017 197.489 324.991C197.463 324.965 197.45 324.934 197.45 324.897C197.45 324.86 197.463 324.828 197.489 324.803C197.516 324.777 197.547 324.765 197.583 324.765Z" fill="black"/>
<path d="M198.583 324.765H198.618C198.655 324.765 198.686 324.778 198.712 324.804C198.738 324.829 198.751 324.86 198.751 324.896C198.751 324.934 198.738 324.966 198.711 324.991C198.685 325.017 198.654 325.029 198.618 325.029H198.583C198.547 325.029 198.515 325.017 198.489 324.991C198.463 324.965 198.45 324.934 198.45 324.897C198.45 324.86 198.463 324.828 198.489 324.803C198.516 324.777 198.547 324.765 198.583 324.765Z" fill="black"/>
<g clip-path="url(#clip0_8_172)">
<path d="M326.75 75.4125C328.232 74.1778 330.101 73.5016 332.03 73.5016C333.959 73.5016 335.828 74.1778 337.31 75.4125" stroke="black" stroke-width="2" stroke-linecap="square" stroke-linejoin="round"/>
<path d="M324.065 72.75C326.257 70.818 329.078 69.752 332 69.752C334.922 69.752 337.743 70.818 339.935 72.75" stroke="black" stroke-width="2" stroke-linecap="square" stroke-linejoin="round"/>
<path d="M329.397 78.0825C330.159 77.5416 331.07 77.2509 332.004 77.2509C332.938 77.2509 333.849 77.5416 334.61 78.0825" stroke="black" stroke-width="2" stroke-linecap="square" stroke-linejoin="round"/>
<path d="M332 81H332.008" stroke="black" stroke-width="2" stroke-linecap="square" stroke-linejoin="round"/>
</g>
<path d="M397.055 262.45C395.055 261.25 390.222 261.95 388.055 262.45L381.055 266.449L370.055 264.949L354.555 262.45C344.955 256.05 347.222 248.95 349.555 246.449C353.649 242.728 357.835 234.019 360.052 226.923C361.352 222.76 362.737 218.366 366.125 215.62C377.659 206.274 392.378 212.836 398.412 220.085C399.639 221.558 400.806 223.103 401.84 224.718C406.043 231.286 402.594 238.112 400.055 240.949C398.455 242.949 399.388 244.783 400.055 245.449C406.055 253.049 400.555 259.95 397.055 262.45Z" fill="#233863"/>
<path d="M387.055 260.949C387.222 257.949 387.555 251.849 387.555 251.449L388.555 249.449L385.055 247.949L383.055 244.949L378.555 242.449L374.555 243.449C374.955 249.849 372.389 256.116 371.055 258.449L370.055 259.949L372.055 262.949L377.555 267.949L382.555 268.449L386.055 267.949L389.055 266.449L390.055 262.949C388.455 264.549 387.389 262.283 387.055 260.949Z" fill="#FFB27E"/>
<path d="M387.055 255.449C381.455 254.649 378.389 249.783 377.555 247.449H382.055L386.555 248.449L387.055 250.949V255.449Z" fill="#ED985F"/>
<path d="M388.555 262.449C393.355 260.449 402.555 264.616 406.555 266.949C404.555 270.549 401.055 273.783 399.555 274.949L380.055 268.949C378.055 274.949 371.222 279.783 368.055 281.449C372.455 283.449 385.555 286.283 391.555 287.449L355.055 349.449L346.555 350.949C346.555 346.149 350.222 335.616 352.055 330.949C358.055 320.149 356.222 308.449 354.555 303.949C351.755 294.749 352.388 274.783 353.055 265.949C353.055 258.349 365.055 257.783 371.055 258.449C384.255 267.649 388.222 264.949 388.555 262.449Z" fill="white"/>
<path d="M416.555 271.949L405.055 267.449L400.555 269.449L397.055 272.949L395.555 277.449L427.055 284.449C431.455 288.449 438.555 286.116 441.555 284.449L468.555 270.949L469.055 267.949L436.555 274.949L416.555 271.949Z" fill="#ED985F"/>
<path d="M455.555 368.449L448.055 360.949L446.555 359.949L440.555 363.949C440.555 365.149 439.889 366.116 439.555 366.449C438.755 366.849 438.555 368.283 438.555 368.949L439.055 373.949H465.055C464.655 369.949 458.555 368.616 455.555 368.449Z" fill="#233863"/>
<path d="M436.555 368.449L429.055 360.949L427.555 359.949L421.555 363.949C421.555 365.149 420.889 366.116 420.555 366.449C419.755 366.849 419.555 368.283 419.555 368.949L420.055 373.949H446.055C445.655 369.949 439.555 368.616 436.555 368.449Z" fill="#2B468B"/>
<path d="M393.555 373.949C398.755 373.149 403.055 356.283 404.555 347.949L407.055 346.449C408.222 345.616 410.655 343.849 411.055 343.449C411.455 343.049 414.889 344.949 416.555 345.949L431.555 356.949C432.355 358.549 437.555 362.616 440.055 364.449C450.055 362.449 450.555 357.949 449.555 355.949C442.355 348.349 433.889 306.449 430.555 286.449C424.155 279.249 417.222 282.116 414.555 284.449L413.055 282.449C411.055 285.616 407.055 292.049 407.055 292.449C407.055 292.849 401.055 306.949 398.055 313.949C393.222 321.283 383.355 336.149 382.555 336.949C381.755 337.749 375.555 361.949 372.555 373.949H393.555Z" fill="#38C9BA"/>
<path d="M375.555 373.949C379.155 373.149 389.055 344.616 393.555 330.449C396.355 342.049 413.055 357.949 421.055 364.449C429.855 362.049 431.055 358.116 430.555 356.449C422.555 350.849 416.555 306.449 414.555 284.949L415.555 277.949L400.055 275.949L389.555 287.449C376.355 295.849 355.055 333.616 346.055 351.449C342.055 366.249 350.388 372.616 355.055 373.949H375.555Z" fill="#40E0D0"/>
<path d="M396.555 237.449C398.155 231.849 394.222 226.783 392.055 224.949C389.197 231.223 383.48 235.726 376.711 237.033L374.555 237.449V243.449L377.555 247.949C381.155 250.349 388.722 251.283 392.055 251.449C394.855 249.849 396.222 241.449 396.555 237.449Z" fill="#FFB27E"/>
<path d="M388.311 307.204C385.366 315.985 392.638 329.823 393.604 330.269L386.277 352.007C378.23 340.348 383.991 318.085 388.311 307.204C388.461 306.757 388.637 306.323 388.842 305.905C388.668 306.317 388.491 306.751 388.311 307.204Z" fill="#38C9BA" fill-opacity="0.5"/>
<path d="M444.449 248.402C444.773 247.547 445.635 247.021 446.543 247.124L473.376 250.153C474.693 250.302 475.504 251.668 475.004 252.895L465.534 276.138C465.214 276.924 464.433 277.422 463.585 277.381L436.75 276.083C435.392 276.017 434.494 274.646 434.976 273.376L444.449 248.402Z" fill="#233863"/>
<path d="M446.449 248.402C446.773 247.547 447.635 247.021 448.543 247.124L475.376 250.153C476.693 250.302 477.504 251.668 477.004 252.895L467.534 276.138C467.214 276.924 466.433 277.422 465.585 277.381L438.75 276.083C437.392 276.017 436.494 274.646 436.976 273.376L446.449 248.402Z" fill="#2B468B"/>
<path d="M472.666 253.959C472.656 253.963 472.641 253.934 472.636 253.925C472.634 253.921 472.629 253.914 472.626 253.911C472.621 253.905 472.62 253.888 472.619 253.881C472.611 253.847 472.604 253.796 472.616 253.762C472.623 253.744 472.626 253.727 472.635 253.709C472.643 253.691 472.657 253.678 472.669 253.663C472.682 253.646 472.713 253.634 472.731 253.625C472.741 253.62 472.751 253.615 472.762 253.612C472.772 253.61 472.78 253.602 472.789 253.6C472.824 253.591 472.872 253.583 472.907 253.591C472.93 253.596 472.965 253.628 472.975 253.649C472.987 253.677 473.001 253.703 473.001 253.735C473.001 253.773 472.995 253.805 472.98 253.839C472.967 253.868 472.948 253.901 472.925 253.923C472.905 253.942 472.878 253.949 472.857 253.967C472.835 253.985 472.804 253.983 472.78 253.994C472.764 254.001 472.73 253.995 472.712 253.995C472.697 253.995 472.696 253.983 472.687 253.974C472.679 253.965 472.669 253.947 472.669 253.935C472.669 253.907 472.669 253.882 472.677 253.855C472.684 253.835 472.694 253.819 472.703 253.8C472.722 253.763 472.772 253.755 472.808 253.755C472.82 253.755 472.836 253.777 472.837 253.79C472.838 253.808 472.846 253.824 472.846 253.842" stroke="white" stroke-linecap="round"/>
<path d="M456.403 264.325C456.362 264.268 456.363 264.108 456.309 264.068C456.259 264.031 456.237 263.932 456.206 263.879C456.146 263.777 456.16 263.634 456.16 263.514C456.16 263.365 456.195 263.267 456.244 263.131C456.278 263.035 456.403 263.015 456.454 262.926C456.482 262.878 456.53 262.836 456.552 262.786C456.604 262.669 456.626 262.572 456.72 262.478C456.818 262.38 456.961 262.27 457.093 262.231C457.124 262.222 457.13 262.186 457.159 262.181C457.201 262.173 457.23 262.155 457.27 262.142C457.334 262.123 457.401 262.077 457.466 262.068C457.622 262.044 457.79 261.956 457.951 261.956C458.079 261.956 458.215 261.941 458.342 261.957C458.426 261.967 458.446 262.014 458.511 262.053C458.545 262.074 458.626 262.161 458.641 262.198C458.684 262.306 458.767 262.394 458.792 262.506C458.805 262.567 458.847 262.602 458.847 262.665C458.847 262.725 458.865 262.782 458.865 262.841C458.865 262.96 458.851 263.078 458.847 263.191C458.843 263.29 458.821 263.462 458.753 263.542C458.667 263.643 458.617 263.778 458.525 263.873C458.422 263.981 458.315 264.041 458.19 264.12C458.129 264.158 458.064 264.197 457.999 264.228C457.944 264.254 457.886 264.316 457.829 264.326C457.783 264.335 457.688 264.387 457.653 264.419C457.614 264.453 457.554 264.45 457.513 264.483C457.466 264.519 457.405 264.533 457.354 264.553C457.301 264.574 457.213 264.605 457.158 264.605C457.04 264.605 456.922 264.605 456.804 264.605C456.689 264.605 456.576 264.601 456.492 264.516C456.41 264.434 456.355 264.33 456.28 264.251C456.229 264.197 456.218 264.105 456.167 264.055C456.097 263.985 456.115 263.954 456.081 263.878C456.043 263.792 456.067 263.654 456.067 263.56C456.067 263.199 456.415 262.929 456.72 262.805C456.957 262.707 457.253 262.687 457.505 262.683C457.632 262.682 457.757 262.646 457.887 262.646C458.067 262.646 458.25 262.856 458.25 263.022C458.25 263.244 458.21 263.449 458.013 263.587C457.908 263.661 457.775 263.704 457.657 263.751C457.53 263.802 457.412 263.863 457.282 263.904C457.084 263.968 456.834 263.981 456.626 263.951C456.586 263.945 456.562 263.907 456.556 263.869C456.518 263.644 456.73 263.425 456.913 263.332C457.185 263.194 457.485 263.086 457.776 262.994C457.867 262.966 457.98 262.913 458.08 262.927C458.122 262.933 458.148 263.01 458.152 263.044C458.177 263.263 458.099 263.483 457.939 263.635C457.761 263.804 457.481 263.891 457.236 263.858C457.155 263.847 457.229 263.579 457.335 263.579" stroke="white" stroke-linecap="round"/>
<path d="M457.093 262.348C456.913 262.361 456.824 262.455 456.668 262.515C456.595 262.544 456.561 262.591 456.496 262.623C456.429 262.657 456.376 262.644 456.334 262.714C456.298 262.774 456.279 262.832 456.249 262.889C456.227 262.931 456.182 262.963 456.164 263.015C456.14 263.087 456.12 263.153 456.09 263.224C456.045 263.33 456.05 263.443 456.015 263.556C455.984 263.657 456.011 263.807 456.011 263.915C456.011 264.03 456.012 264.113 456.052 264.217C456.09 264.316 456.181 264.393 456.272 264.433C456.348 264.467 456.477 264.508 456.477 264.605" stroke="white" stroke-linecap="round"/>
<path d="M399.555 274.949L380.055 268.949C378.455 273.749 371.555 279.283 368.555 281.449C369.755 283.449 388.555 286.949 397.555 288.449L403.165 288.85C404.083 288.916 405.004 288.8 405.877 288.509L407.756 287.882C409.619 287.261 411.43 286.493 413.171 285.585L422.055 280.949L440.555 269.949C443.355 268.749 445.722 268.783 446.555 268.949H452.055C456.12 268.369 457.094 266.875 457.004 265.654C456.941 264.811 456.123 264.305 455.321 264.038L447.555 261.449C448.355 261.049 448.889 258.783 449.055 257.949L442.11 260.809C441.088 261.23 440.18 261.887 439.461 262.726L437.555 264.949L436.055 265.449L409.555 274.449C405.555 276.449 401.222 275.616 399.555 274.949Z" fill="#FFB27E"/>
<path d="M467 260.26C467 263.86 469 266.76 470 267.76L469.5 270.76C475.9 267.16 472.833 261.26 470.5 258.76C468.1 256.76 467.167 258.927 467 260.26Z" fill="#ED985F"/>
<path d="M388 245.45C389.333 245.116 392.4 244.65 394 245.45C393 246.616 391 248.449 388 245.45Z" fill="white"/>
<rect x="469" y="188" width="73" height="40" rx="10" fill="#40E0D0"/>
<path d="M492 225.5H479L475.5 238.5L492 225.5Z" fill="#40E0D0"/>
<line x1="474" y1="196.5" x2="503.647" y2="196.5" stroke="white" stroke-width="3"/>
<line x1="475.482" y1="208.118" x2="495.494" y2="208.118" stroke="white" stroke-width="2"/>
<line x1="507.353" y1="196.5" x2="537" y2="196.5" stroke="white" stroke-width="3"/>
<line x1="497.718" y1="208.118" x2="507.353" y2="208.118" stroke="white" stroke-width="2"/>
<line y1="-1" x2="9.63529" y2="-1" transform="matrix(-1 0 0 1 516.988 214.306)" stroke="white" stroke-width="2"/>
<line x1="491.047" y1="219.753" x2="476.224" y2="219.753" stroke="white" stroke-width="2"/>
<line x1="510.318" y1="208.118" x2="534.776" y2="208.118" stroke="white" stroke-width="2"/>
<line y1="-1" x2="24.4588" y2="-1" transform="matrix(-1 0 0 1 499.941 214.306)" stroke="white" stroke-width="2"/>
<line x1="12" y1="373" x2="598" y2="373" stroke="black" stroke-width="2"/>
<defs>
<clipPath id="clip0_8_172">
<rect width="18" height="18" fill="white" transform="translate(323 66)"/>
</clipPath>
</defs>
</svg>
