<svg width="46" height="46" viewBox="0 0 46 46" fill="none" xmlns="http://www.w3.org/2000/svg">
<path d="M23 28.75C26.1756 28.75 28.75 26.1756 28.75 23C28.75 19.8244 26.1756 17.25 23 17.25C19.8244 17.25 17.25 19.8244 17.25 23C17.25 26.1756 19.8244 28.75 23 28.75Z" fill="url(#paint0_linear_425_125)"/>
<path d="M30.9062 5.03125H15.0938C12.425 5.03125 9.86557 6.0914 7.97849 7.97849C6.0914 9.86557 5.03125 12.425 5.03125 15.0938V30.9062C5.03125 33.575 6.0914 36.1344 7.97849 38.0215C9.86557 39.9086 12.425 40.9688 15.0938 40.9688H30.9062C33.575 40.9688 36.1344 39.9086 38.0215 38.0215C39.9086 36.1344 40.9688 33.575 40.9688 30.9062V15.0938C40.9688 12.425 39.9086 9.86557 38.0215 7.97849C36.1344 6.0914 33.575 5.03125 30.9062 5.03125ZM23 31.625C21.2941 31.625 19.6266 31.1192 18.2082 30.1714C16.7898 29.2237 15.6843 27.8767 15.0315 26.3006C14.3787 24.7246 14.2079 22.9904 14.5407 21.3173C14.8735 19.6443 15.695 18.1074 16.9012 16.9012C18.1074 15.695 19.6443 14.8735 21.3173 14.5407C22.9904 14.2079 24.7246 14.3787 26.3006 15.0315C27.8767 15.6843 29.2237 16.7898 30.1714 18.2082C31.1192 19.6266 31.625 21.2941 31.625 23C31.625 25.2875 30.7163 27.4813 29.0988 29.0988C27.4813 30.7163 25.2875 31.625 23 31.625ZM32.3438 15.8125C31.9173 15.8125 31.5004 15.686 31.1458 15.4491C30.7912 15.2122 30.5148 14.8754 30.3516 14.4814C30.1884 14.0874 30.1457 13.6539 30.2289 13.2356C30.3121 12.8173 30.5175 12.4331 30.8191 12.1316C31.1206 11.83 31.5048 11.6246 31.9231 11.5414C32.3414 11.4582 32.7749 11.5009 33.1689 11.6641C33.5629 11.8273 33.8997 12.1037 34.1366 12.4583C34.3735 12.8129 34.5 13.2298 34.5 13.6562C34.5 14.2281 34.2728 14.7766 33.8684 15.1809C33.4641 15.5853 32.9156 15.8125 32.3438 15.8125Z" fill="url(#paint1_linear_425_125)"/>
<defs>
<linearGradient id="paint0_linear_425_125" x1="23" y1="17.25" x2="23" y2="28.75" gradientUnits="userSpaceOnUse">
<stop stop-color="#40E0D0"/>
<stop offset="0.0001" stop-color="#A9DBB8"/>
<stop offset="0.973958" stop-color="#40E0D0"/>
</linearGradient>
<linearGradient id="paint1_linear_425_125" x1="23" y1="5.03125" x2="23" y2="40.9688" gradientUnits="userSpaceOnUse">
<stop stop-color="#40E0D0"/>
<stop offset="0.0001" stop-color="#A9DBB8"/>
<stop offset="0.973958" stop-color="#40E0D0"/>
</linearGradient>
</defs>
</svg>
