<svg width="46" height="46" viewBox="0 0 46 46" fill="none" xmlns="http://www.w3.org/2000/svg">
<path d="M38.0938 5.03125H7.90625C7.14375 5.03125 6.41248 5.33415 5.87332 5.87332C5.33415 6.41248 5.03125 7.14375 5.03125 7.90625V38.0938C5.03125 38.8562 5.33415 39.5875 5.87332 40.1267C6.41248 40.6658 7.14375 40.9688 7.90625 40.9688H38.0938C38.8562 40.9688 39.5875 40.6658 40.1267 40.1267C40.6658 39.5875 40.9688 38.8562 40.9688 38.0938V7.90625C40.9688 7.14375 40.6658 6.41248 40.1267 5.87332C39.5875 5.33415 38.8562 5.03125 38.0938 5.03125ZM17.25 31.625C17.25 32.0062 17.0985 32.3719 16.829 32.6415C16.5594 32.9111 16.1937 33.0625 15.8125 33.0625C15.4313 33.0625 15.0656 32.9111 14.796 32.6415C14.5265 32.3719 14.375 32.0062 14.375 31.625V20.125C14.375 19.7438 14.5265 19.3781 14.796 19.1085C15.0656 18.839 15.4313 18.6875 15.8125 18.6875C16.1937 18.6875 16.5594 18.839 16.829 19.1085C17.0985 19.3781 17.25 19.7438 17.25 20.125V31.625ZM15.8125 16.5312C15.386 16.5312 14.9691 16.4048 14.6146 16.1679C14.26 15.9309 13.9836 15.5942 13.8204 15.2002C13.6572 14.8062 13.6145 14.3726 13.6977 13.9543C13.7809 13.5361 13.9862 13.1519 14.2878 12.8503C14.5894 12.5487 14.9736 12.3434 15.3918 12.2602C15.8101 12.177 16.2437 12.2197 16.6377 12.3829C17.0317 12.5461 17.3684 12.8225 17.6054 13.1771C17.8423 13.5316 17.9688 13.9485 17.9688 14.375C17.9688 14.9469 17.7416 15.4953 17.3372 15.8997C16.9328 16.3041 16.3844 16.5312 15.8125 16.5312ZM33.0625 31.625C33.0625 32.0062 32.9111 32.3719 32.6415 32.6415C32.3719 32.9111 32.0062 33.0625 31.625 33.0625C31.2438 33.0625 30.8781 32.9111 30.6085 32.6415C30.3389 32.3719 30.1875 32.0062 30.1875 31.625V25.1562C30.1875 24.2031 29.8089 23.289 29.1349 22.6151C28.461 21.9411 27.5469 21.5625 26.5938 21.5625C25.6406 21.5625 24.7265 21.9411 24.0526 22.6151C23.3786 23.289 23 24.2031 23 25.1562V31.625C23 32.0062 22.8485 32.3719 22.579 32.6415C22.3094 32.9111 21.9437 33.0625 21.5625 33.0625C21.1813 33.0625 20.8156 32.9111 20.546 32.6415C20.2765 32.3719 20.125 32.0062 20.125 31.625V20.125C20.124 19.7712 20.2535 19.4295 20.4887 19.1653C20.7239 18.901 21.0483 18.7327 21.3998 18.6927C21.7513 18.6527 22.1052 18.7436 22.3938 18.9482C22.6824 19.1528 22.8855 19.4566 22.9641 19.8016C23.9367 19.1422 25.0707 18.7602 26.244 18.6967C27.4174 18.6332 28.586 18.8905 29.6241 19.441C30.6623 19.9915 31.5309 20.8144 32.1367 21.8213C32.7425 22.8282 33.0625 23.9811 33.0625 25.1562V31.625Z" fill="url(#paint0_linear_425_129)"/>
<defs>
<linearGradient id="paint0_linear_425_129" x1="23" y1="5.03125" x2="23" y2="40.9688" gradientUnits="userSpaceOnUse">
<stop stop-color="#40E0D0"/>
<stop offset="0.0001" stop-color="#A9DBB8"/>
<stop offset="0.973958" stop-color="#40E0D0"/>
</linearGradient>
</defs>
</svg>
