<svg width="125" height="101" viewBox="0 0 125 101" fill="none" xmlns="http://www.w3.org/2000/svg">
<path d="M108.389 30.7874C107.952 30.7233 107.509 30.6825 107.065 30.6533C112.103 42.2621 112.452 55.37 108.04 67.2304C108.483 67.178 108.92 67.108 109.358 67.0263C113.629 66.1987 117.469 63.8821 120.192 60.4889C122.916 57.0957 124.347 52.846 124.231 48.4965C124.114 44.147 122.459 39.9799 119.558 36.737C116.657 33.494 112.699 31.3857 108.389 30.7874Z" fill="black"/>
<path d="M17.1716 30.6533C16.7282 30.6825 16.285 30.7233 15.8476 30.7874C11.5379 31.3858 7.58037 33.4941 4.67953 36.7371C1.7787 39.98 0.122781 44.1471 0.00656082 48.4966C-0.109659 52.846 1.32138 57.0956 4.04489 60.4888C6.7684 63.882 10.6077 66.1987 14.8792 67.0263C15.3167 67.108 15.7541 67.178 16.1973 67.2304C11.7854 55.3699 12.1345 42.2622 17.1716 30.6533Z" fill="black"/>
<path d="M108.39 30.7872C103.585 19.3094 94.6847 10.0275 83.4188 4.74473C72.1528 -0.538058 59.3254 -1.44453 47.4285 2.20143C35.5316 5.84739 25.4147 13.7855 19.0432 24.4735C12.6717 35.1615 10.5005 47.8363 12.9515 60.0355C15.4026 72.2348 22.3007 83.0874 32.3059 90.4851C42.3111 97.8828 54.7089 101.297 67.0908 100.065C79.4727 98.8332 90.9547 93.0426 99.3059 83.8184C107.657 74.5942 112.281 62.595 112.281 50.152C112.278 43.5032 110.956 36.921 108.39 30.7872ZM108.04 67.2302C103.773 78.6992 95.3684 88.1558 84.4793 93.7388C73.5902 99.3217 61.0058 100.627 49.2028 97.3967C37.3999 94.1667 27.2334 86.6359 20.7044 76.2863C14.1753 65.9368 11.7565 53.5182 13.9241 41.4748C16.0918 29.4314 22.6889 18.6356 32.4169 11.2121C42.1449 3.78863 54.2992 0.275226 66.4876 1.36341C78.676 2.4516 90.0157 8.06256 98.2748 17.0919C106.534 26.1213 111.114 37.9151 111.114 50.152C111.112 55.9822 110.071 61.7653 108.04 67.2302Z" fill="black"/>
<path d="M87.7825 38.7783H36.4543C33.7472 38.7783 31.1509 39.8537 29.2367 41.768C27.3225 43.6822 26.2471 46.2785 26.2471 48.9856C26.2471 51.6928 27.3225 54.289 29.2367 56.2033C31.1509 58.1175 33.7472 59.1929 36.4543 59.1929H87.7825C90.4897 59.1929 93.0859 58.1175 95.0002 56.2033C96.9144 54.289 97.9899 51.6928 97.9899 48.9856C97.9899 46.2785 96.9144 43.6822 95.0002 41.768C93.0859 39.8537 90.4897 38.7783 87.7825 38.7783Z" fill="black"/>
</svg>
