<svg width="92" height="92" viewBox="0 0 92 92" fill="none" xmlns="http://www.w3.org/2000/svg">
<path d="M45.7261 91.4522C36.6824 91.4522 27.8417 88.7704 20.3221 83.7459C12.8024 78.7215 6.94159 71.58 3.48069 63.2247C0.0197937 54.8694 -0.88571 45.6754 0.878641 36.8054C2.64299 27.9354 6.99795 19.7878 13.3929 13.3929C19.7878 6.99795 27.9354 2.64298 36.8054 0.878633C45.6754 -0.885717 54.8694 0.019814 63.2247 3.48071C71.5801 6.94161 78.7215 12.8024 83.7459 20.3221C88.7704 27.8417 91.4522 36.6823 91.4522 45.7261C91.4384 57.8492 86.6164 69.4718 78.0441 78.0441C69.4718 86.6165 57.8492 91.4384 45.7261 91.4522ZM45.7261 2.00003C37.0779 2.00003 28.6239 4.56452 21.4332 9.3692C14.2425 14.1739 8.63799 21.003 5.32847 28.9929C2.01895 36.9828 1.15301 45.7746 2.84019 54.2566C4.52737 62.7387 8.69191 70.5299 14.8071 76.6451C20.9223 82.7603 28.7135 86.9248 37.1955 88.612C45.6776 90.2992 54.4694 89.4332 62.4593 86.1237C70.4492 82.8142 77.2783 77.2097 82.083 70.019C86.8877 62.8283 89.4522 54.3743 89.4522 45.7261C89.4391 34.1332 84.828 23.019 76.6307 14.8216C68.4333 6.62417 57.319 2.01313 45.7261 2.00003Z" fill="black"/>
<path d="M44.9179 67.9784C55.2204 67.9784 63.5721 59.6266 63.5721 49.3242C63.5721 39.0217 55.2204 30.6699 44.9179 30.6699C34.6155 30.6699 26.2637 39.0217 26.2637 49.3242C26.2637 59.6266 34.6155 67.9784 44.9179 67.9784Z" fill="black"/>
<path d="M30.3573 39.2667C33.3717 36.2522 33.9827 31.9757 31.7218 29.7149C29.461 27.4541 25.1845 28.065 22.1701 31.0794C19.1556 34.0939 18.5447 38.3704 20.8055 40.6312C23.0664 42.8921 27.3428 42.2811 30.3573 39.2667Z" fill="black"/>
<path d="M64.3608 33.3426C65.6168 30.4023 63.4568 26.6612 59.5365 24.9865C55.6161 23.3119 51.4198 24.3379 50.1638 27.2782C48.9078 30.2185 51.0678 33.9596 54.9881 35.6343C58.9085 37.3089 63.1048 36.2829 64.3608 33.3426Z" fill="black"/>
<path d="M45.5094 69.6091C54.2529 69.6091 61.341 62.521 61.341 53.7774C61.341 45.0339 54.2529 37.9458 45.5094 37.9458C36.7658 37.9458 29.6777 45.0339 29.6777 53.7774C29.6777 62.521 36.7658 69.6091 45.5094 69.6091Z" fill="#FFB8B8"/>
<path d="M28.874 43.8195C32.4918 46.313 36.7858 47.64 41.1796 47.6225C39.6122 48.7092 37.828 49.4433 35.9497 49.7741C41.7916 51.0273 47.8292 51.0612 53.6848 49.8738C54.9864 49.6651 56.2422 49.2337 57.3974 48.5987C57.973 48.2772 58.4746 47.8381 58.8694 47.3101C59.2642 46.7821 59.5435 46.1769 59.689 45.5338C60.0781 43.311 58.346 41.2915 56.546 39.9304C53.7901 37.8784 50.6125 36.4646 47.2431 35.7913C43.8737 35.118 40.3968 35.202 37.0638 36.0374C34.8431 36.4842 32.8222 37.6262 31.2938 39.2981C29.8803 41.0458 29.4616 43.7402 30.8083 45.5399L28.874 43.8195Z" fill="black"/>
</svg>
