<svg width="46" height="46" viewBox="0 0 46 46" fill="none" xmlns="http://www.w3.org/2000/svg">
<path d="M44.1495 13.9619L38.7229 19.3705C37.6448 31.9306 27.0432 41.6877 14.3752 41.6877C11.7698 41.6877 9.61352 41.2744 7.97836 40.4658C6.66664 39.8009 6.12758 39.1002 5.98383 38.8845C5.86489 38.7039 5.78825 38.4987 5.75962 38.2844C5.73099 38.07 5.7511 37.8519 5.81846 37.6464C5.88582 37.4408 5.99868 37.2532 6.14865 37.0973C6.29862 36.9415 6.48182 36.8215 6.68461 36.7463C6.72055 36.7283 10.9612 35.1111 13.7104 32.0025C12.0054 30.7885 10.5068 29.3082 9.27211 27.6181C6.81039 24.2759 4.20492 18.472 5.7682 9.81111C5.81735 9.55362 5.93511 9.31419 6.10907 9.1181C6.28302 8.92201 6.5067 8.77654 6.75648 8.69704C7.00707 8.61499 7.27539 8.60344 7.53209 8.66366C7.7888 8.72387 8.02399 8.85353 8.21195 9.03845C8.26586 9.11032 14.2495 15.0041 21.5627 16.9088V15.8127C21.5698 14.6729 21.8013 13.5457 22.244 12.4955C22.6866 11.4452 23.3319 10.4924 24.1428 9.69149C24.9537 8.89059 25.9145 8.25724 26.9701 7.82764C28.0258 7.39803 29.1558 7.18057 30.2955 7.18767C31.7914 7.209 33.2563 7.61745 34.5474 8.37321C35.8385 9.12897 36.9118 10.2063 37.6627 11.5002H43.1252C43.409 11.4993 43.6867 11.5824 43.9234 11.7391C44.16 11.8958 44.345 12.119 44.4549 12.3806C44.5585 12.6462 44.5848 12.9356 44.5307 13.2154C44.4766 13.4952 44.3445 13.754 44.1495 13.9619Z" fill="url(#paint0_linear_425_135)"/>
<defs>
<linearGradient id="paint0_linear_425_135" x1="24.9265" y1="7.1875" x2="24.9265" y2="41.6877" gradientUnits="userSpaceOnUse">
<stop stop-color="#40E0D0"/>
<stop offset="0.0001" stop-color="#A9DBB8"/>
<stop offset="0.973958" stop-color="#40E0D0"/>
</linearGradient>
</defs>
</svg>
