<svg width="46" height="46" viewBox="0 0 46 46" fill="none" xmlns="http://www.w3.org/2000/svg">
<path d="M42.1008 12.5421C41.9356 11.8796 41.6123 11.2671 41.1585 10.757C40.7047 10.2469 40.134 9.85439 39.4953 9.61319C33.35 7.24131 23.5391 7.25928 23 7.25928C22.4609 7.25928 12.65 7.24131 6.50469 9.61319C5.86597 9.85439 5.29526 10.2469 4.84148 10.757C4.3877 11.2671 4.06437 11.8796 3.89922 12.5421C3.43203 14.321 2.875 17.5913 2.875 22.9999C2.875 28.4085 3.43203 31.6788 3.89922 33.4577C4.06437 34.1202 4.3877 34.7327 4.84148 35.2428C5.29526 35.753 5.86597 36.1454 6.50469 36.3866C12.3984 38.6687 21.6344 38.7405 22.8742 38.7405H23.1258C24.3656 38.7405 33.6016 38.6687 39.4953 36.3866C40.134 36.1454 40.7047 35.753 41.1585 35.2428C41.6123 34.7327 41.9356 34.1202 42.1008 33.4577C42.568 31.6788 43.125 28.4085 43.125 22.9999C43.125 17.5913 42.568 14.321 42.1008 12.5421ZM29.1453 23.5929L20.5203 29.3429C20.4059 29.4271 20.267 29.4713 20.125 29.4687C20.006 29.4642 19.8894 29.4335 19.7836 29.3788C19.6687 29.3191 19.5727 29.2287 19.5061 29.1177C19.4395 29.0067 19.4049 28.8794 19.4062 28.7499V17.2499C19.4049 17.1205 19.4395 16.9932 19.5061 16.8821C19.5727 16.7711 19.6687 16.6807 19.7836 16.621C19.8982 16.5599 20.0272 16.5309 20.1569 16.5373C20.2866 16.5436 20.4122 16.5849 20.5203 16.6569L29.1453 22.4069C29.2455 22.4701 29.3281 22.5576 29.3854 22.6613C29.4426 22.7649 29.4726 22.8815 29.4726 22.9999C29.4726 23.1184 29.4426 23.2349 29.3854 23.3386C29.3281 23.4423 29.2455 23.5298 29.1453 23.5929Z" fill="url(#paint0_linear_425_132)"/>
<defs>
<linearGradient id="paint0_linear_425_132" x1="23" y1="7.25928" x2="23" y2="38.7405" gradientUnits="userSpaceOnUse">
<stop stop-color="#40E0D0"/>
<stop offset="0.0001" stop-color="#A9DBB8"/>
<stop offset="0.973958" stop-color="#40E0D0"/>
</linearGradient>
</defs>
</svg>
