<svg width="25" height="22" viewBox="0 0 25 22" fill="none" xmlns="http://www.w3.org/2000/svg">
<path d="M16.1356 14.0001V18.0001C16.1356 18.7958 15.8195 19.5588 15.2569 20.1214C14.6943 20.6841 13.9312 21.0001 13.1356 21.0001L9.1356 12.0001V1.00012H20.4156C20.8979 0.994667 21.366 1.16372 21.7335 1.47612C22.101 1.78852 22.3433 2.22322 22.4156 2.70012L23.7956 11.7001C23.8391 11.9868 23.8198 12.2794 23.7389 12.5579C23.6581 12.8363 23.5177 13.0938 23.3275 13.3126C23.1372 13.5314 22.9017 13.7062 22.6372 13.8249C22.3727 13.9436 22.0855 14.0034 21.7956 14.0001H16.1356Z" stroke="black" stroke-width="2" stroke-linecap="round" stroke-linejoin="round"/>
<path d="M1.58578 1.58589C1.96086 1.21082 2.46957 1.00011 3 1.00011H5.71281V12.0001H3C2.46957 12.0001 1.96086 11.7894 1.58578 11.4143C1.21071 11.0392 1 10.5305 1 10.0001V3.00011C1 2.46967 1.21071 1.96097 1.58578 1.58589Z" stroke="black" stroke-width="2" stroke-linecap="round" stroke-linejoin="round"/>
</svg>
