<svg width="25" height="22" viewBox="0 0 25 22" fill="none" xmlns="http://www.w3.org/2000/svg">
<path d="M16.1356 14V18C16.1356 18.7956 15.8195 19.5587 15.2569 20.1213C14.6943 20.6839 13.9312 21 13.1356 21L9.1356 12V0.999998H20.4156C20.8979 0.994545 21.366 1.1636 21.7335 1.476C22.101 1.7884 22.3433 2.2231 22.4156 2.7L23.7956 11.7C23.8391 11.9866 23.8198 12.2793 23.7389 12.5577C23.6581 12.8362 23.5177 13.0937 23.3275 13.3125C23.1372 13.5313 22.9017 13.7061 22.6372 13.8248C22.3727 13.9435 22.0855 14.0033 21.7956 14H16.1356Z" fill="black"/>
<path d="M1.58578 1.58577C1.96086 1.2107 2.46957 0.999985 3 0.999985H5.71281V12H3C2.46957 12 1.96086 11.7893 1.58578 11.4142C1.21071 11.0391 1 10.5304 1 9.99998V2.99998C1 2.46955 1.21071 1.96084 1.58578 1.58577Z" fill="black"/>
<path d="M16.1356 14V18C16.1356 18.7956 15.8195 19.5587 15.2569 20.1213C14.6943 20.6839 13.9312 21 13.1356 21L9.1356 12V0.999998H20.4156C20.8979 0.994545 21.366 1.1636 21.7335 1.476C22.101 1.7884 22.3433 2.2231 22.4156 2.7L23.7956 11.7C23.8391 11.9866 23.8198 12.2793 23.7389 12.5577C23.6581 12.8362 23.5177 13.0937 23.3275 13.3125C23.1372 13.5313 22.9017 13.7061 22.6372 13.8248C22.3727 13.9435 22.0855 14.0033 21.7956 14H16.1356Z" stroke="black" stroke-width="2" stroke-linecap="round" stroke-linejoin="round"/>
<path d="M1.58578 1.58577C1.96086 1.2107 2.46957 0.999985 3 0.999985H5.71281V12H3C2.46957 12 1.96086 11.7893 1.58578 11.4142C1.21071 11.0391 1 10.5304 1 9.99998V2.99998C1 2.46955 1.21071 1.96084 1.58578 1.58577Z" stroke="black" stroke-width="2" stroke-linecap="round" stroke-linejoin="round"/>
</svg>
