<svg width="40" height="40" viewBox="0 0 40 40" fill="none" xmlns="http://www.w3.org/2000/svg">
<path d="M20 35C28.2843 35 35 28.2843 35 20C35 11.7157 28.2843 5 20 5C11.7157 5 5 11.7157 5 20C5 28.2843 11.7157 35 20 35Z" stroke="white" stroke-width="3" stroke-linecap="round" stroke-linejoin="round"/>
<path d="M20 25C23.4518 25 26.25 22.2018 26.25 18.75C26.25 15.2982 23.4518 12.5 20 12.5C16.5482 12.5 13.75 15.2982 13.75 18.75C13.75 22.2018 16.5482 25 20 25Z" stroke="white" stroke-width="3" stroke-linecap="round" stroke-linejoin="round"/>
<path d="M9.96875 31.1562C10.9092 29.3038 12.3443 27.7479 14.1149 26.6611C15.8855 25.5743 17.9225 24.999 20 24.999C22.0775 24.999 24.1145 25.5743 25.8851 26.6611C27.6557 27.7479 29.0908 29.3038 30.0312 31.1562" stroke="white" stroke-width="3" stroke-linecap="round" stroke-linejoin="round"/>
</svg>
