<svg width="390" height="386" viewBox="0 0 390 386" fill="none" xmlns="http://www.w3.org/2000/svg">
<g clip-path="url(#clip0_726_2)">
<path d="M390 385.117C390 385.607 389.606 386 389.115 386H0.884556C0.393984 386 0 385.607 0 385.117C0 384.627 0.393984 384.234 0.884556 384.234H389.115C389.606 384.234 390 384.627 390 385.117Z" fill="#3F3D56"/>
<path d="M269.486 342.124L273.946 360.675L260.566 364.385L257.593 344.35L269.486 342.124Z" fill="#FFB6B6"/>
<path d="M291.043 282.019L276.92 293.892L268 307.99L280.637 316.153L302.193 291.666L291.043 282.019Z" fill="#FFB6B6"/>
<path d="M286.583 159.582L298.476 199.652C298.476 199.652 351.252 245.659 346.049 255.305C340.845 264.952 305.909 291.665 305.909 291.665C305.909 291.665 308.502 300.207 300.887 296.678C293.273 293.149 285.096 283.503 285.096 283.503C285.096 283.503 285.096 276.082 288.813 277.566C292.529 279.05 309.626 259.015 309.626 259.015L272.459 224.882V339.018C272.459 339.018 281.379 346.804 272.459 347.432C263.54 348.06 255.363 349.544 255.363 349.544C255.363 349.544 244.956 345.834 248.673 342.124L237.523 281.277L229.347 207.073L235.293 168.487L286.583 159.582Z" fill="#2F2E41"/>
<path d="M262.797 358.449C262.797 358.449 263.54 355.481 266.513 355.481H275.594C275.594 355.481 278.407 368.096 277.663 368.096C276.92 368.096 289.556 384.421 276.177 385.163C262.797 385.905 259.08 384.421 259.08 384.421L257.593 378.563C257.593 378.563 255.363 374.774 256.107 371.806C256.85 368.838 262.797 358.449 262.797 358.449Z" fill="#2F2E41"/>
<path d="M281.38 310.216C281.38 310.216 289.917 310.082 287.879 312.375C285.84 314.669 282.123 318.379 282.123 318.379C282.123 318.379 273.282 336.188 269.154 332.849C265.027 329.509 258.337 292.407 260.567 287.955C262.797 283.503 265.77 283.503 265.77 283.503L279.484 291.736C279.484 291.736 270.973 312.442 281.38 310.216Z" fill="#2F2E41"/>
<path d="M260.566 96.5089L263.539 77.9579L243.469 69.7954L240.496 97.9929L260.566 96.5089Z" fill="#FFB6B6"/>
<path opacity="0.1" d="M260.566 96.5089L263.539 77.9579L243.469 69.7954L240.496 97.9929L260.566 96.5089Z" fill="black"/>
<path d="M239.382 93.9119L263.168 87.9756L288.441 96.138C288.441 96.138 299.591 127.304 295.874 138.434C292.158 149.565 292.158 171.306 292.158 171.306C292.158 171.306 291.786 161.809 270.23 168.487C248.673 175.165 233.064 174.423 233.064 174.423L232.32 147.71L222.982 123.982C218.991 113.84 223.293 102.325 232.962 97.2687L239.382 93.9119Z" fill="#E6E6E6"/>
<path d="M348.571 181.326C351.928 185.34 352.574 190.322 350.014 192.454C347.455 194.586 342.66 193.06 339.303 189.044C337.94 187.458 336.977 185.569 336.495 183.536L322.489 166.349L329.312 160.837L343.644 177.581C345.562 178.419 347.252 179.702 348.571 181.326V181.326Z" fill="#FFB6B6"/>
<path d="M287.361 96.3745L282.486 115.65L306.345 153.775L330.701 178.211L338.595 171.673L314.032 141.163L295.413 101.852L287.361 96.3745Z" fill="#E6E6E6"/>
<path d="M344.158 77.7697C361.148 76.5163 373.634 58.1059 372.046 36.649C370.457 15.1921 355.396 -1.18606 338.406 0.0673746C321.415 1.32081 308.929 19.7312 310.518 41.1881C312.106 62.645 327.167 79.0231 344.158 77.7697Z" fill="url(#paint0_linear_726_2)"/>
<path d="M343.512 77.77H342.025V225.761H343.512V77.77Z" fill="#2F2E41"/>
<path d="M343.881 74.6445L344.06 79.8885L346.434 84.7431L336.529 84.2388L340.693 80.0585L340.222 75.2936L343.881 74.6445Z" fill="#40E0D0"/>
<path d="M255.495 83.9216C266.798 83.9216 275.961 74.7743 275.961 63.4906C275.961 52.2068 266.798 43.0596 255.495 43.0596C244.191 43.0596 235.028 52.2068 235.028 63.4906C235.028 74.7743 244.191 83.9216 255.495 83.9216Z" fill="#FFB6B6"/>
<path d="M253.861 36.0223C254.453 36.3674 255.246 35.8453 255.436 35.1875C255.626 34.5297 255.405 33.8313 255.186 33.1828L254.081 29.9177C253.298 27.6021 252.467 25.2055 250.771 23.443C248.211 20.7828 244.142 20.1061 240.48 20.5964C235.776 21.226 231.136 23.7684 228.949 27.9727C226.762 32.1769 227.693 38.0433 231.645 40.6664C226.013 47.1104 224.049 54.292 224.359 62.8383C224.669 71.3846 233.999 79.25 240.083 85.2705C241.442 84.4483 242.677 80.5952 241.93 79.1954C241.183 77.7956 242.253 76.174 241.328 74.8846C240.402 73.5953 239.628 75.6483 240.564 74.3663C241.154 73.5573 238.85 71.6962 239.728 71.212C243.972 68.8701 245.383 63.5892 248.049 59.5452C251.264 54.6674 256.767 51.3641 262.59 50.8161C265.798 50.5142 269.186 51.061 271.815 52.9201C274.445 54.7792 276.147 58.1014 275.537 61.2599C277.116 59.6593 277.902 57.3136 277.606 55.0867C277.309 52.8598 275.937 50.8005 273.994 49.6672C275.175 45.7669 274.163 41.2805 271.421 38.2623C268.679 35.2442 257.555 35.7582 253.551 36.5525" fill="#2F2E41"/>
<path d="M253.239 50.9346C247.936 51.506 244.108 56.0911 240.875 60.3255C239.012 62.7661 237.06 65.4613 237.107 68.5296C237.154 71.6318 239.232 74.2925 240.225 77.2324C241.848 82.0377 240.266 87.7549 236.402 91.0475C240.22 91.7706 244.347 88.9132 245.006 85.0904C245.773 80.6402 242.394 76.3451 242.794 71.8472C243.147 67.8845 246.275 64.8347 248.934 61.8718C251.594 58.9089 254.091 54.9772 252.868 51.191" fill="#2F2E41"/>
<path d="M233.72 174.051H80.8417C63.5052 174.051 49.4512 188.081 49.4512 205.388V353.375C49.4512 370.681 63.5052 384.711 80.8417 384.711H233.72C251.057 384.711 265.111 370.681 265.111 353.375V205.388C265.111 188.081 251.057 174.051 233.72 174.051V174.051Z" fill="white"/>
<path d="M233.721 385.453H80.8419C63.1233 385.453 48.708 371.063 48.708 353.375V205.388C48.708 187.7 63.1233 173.31 80.8419 173.31H233.721C251.439 173.31 265.855 187.7 265.855 205.388V353.375C265.855 371.063 251.439 385.453 233.721 385.453ZM80.8419 174.794C63.9429 174.794 50.1947 188.518 50.1947 205.388V353.375C50.1947 370.245 63.9429 383.969 80.8419 383.969H233.721C250.62 383.969 264.368 370.245 264.368 353.375V205.388C264.368 188.518 250.62 174.794 233.721 174.794H80.8419Z" fill="#3F3D56"/>
<path d="M217.59 188.61C219.548 188.61 221.135 187.025 221.135 185.071C221.135 183.117 219.548 181.532 217.59 181.532C215.632 181.532 214.045 183.117 214.045 185.071C214.045 187.025 215.632 188.61 217.59 188.61Z" fill="#3F3D56"/>
<path d="M227.338 188.61C229.296 188.61 230.883 187.025 230.883 185.071C230.883 183.117 229.296 181.532 227.338 181.532C225.38 181.532 223.793 183.117 223.793 185.071C223.793 187.025 225.38 188.61 227.338 188.61Z" fill="#3F3D56"/>
<path d="M237.087 188.61C239.045 188.61 240.632 187.025 240.632 185.071C240.632 183.117 239.045 181.532 237.087 181.532C235.129 181.532 233.542 183.117 233.542 185.071C233.542 187.025 235.129 188.61 237.087 188.61Z" fill="#3F3D56"/>
<path d="M75.8303 332.902C74.7289 332.902 73.833 333.797 73.833 334.896C73.833 335.432 74.0404 335.928 74.4168 336.294C74.7965 336.682 75.2939 336.89 75.8303 336.89H235.718C236.819 336.89 237.715 335.996 237.715 334.896C237.715 334.36 237.508 333.864 237.132 333.498C236.752 333.11 236.255 332.902 235.718 332.902H75.8303Z" fill="#E6E6E6"/>
<path d="M161.324 332.237V337.554H75.831C75.0987 337.554 74.4329 337.262 73.9536 336.77C73.4609 336.291 73.168 335.627 73.168 334.896C73.168 333.434 74.3663 332.237 75.831 332.237H161.324V332.237Z" fill="#40E0D0"/>
<path d="M232.39 322.268H205.76C202.823 322.268 200.434 319.884 200.434 316.952C200.434 314.019 202.823 311.635 205.76 311.635H232.39C235.326 311.635 237.716 314.019 237.716 316.952C237.716 319.884 235.326 322.268 232.39 322.268Z" fill="#E6E6E6"/>
<path d="M132.344 326.068L113.729 263.627L112.304 264.05L130.854 326.272" fill="#2F2E41"/>
<path d="M132.989 183.964C149.979 182.71 162.465 164.3 160.877 142.843C159.288 121.386 144.227 105.008 127.237 106.261C110.246 107.515 97.7603 125.925 99.3487 147.382C100.937 168.839 115.998 185.217 132.989 183.964Z" fill="url(#paint1_linear_726_2)"/>
<path d="M132.343 183.964H130.856V331.955H132.343V183.964Z" fill="#2F2E41"/>
<path d="M114.565 261.818L116.234 266.794L119.896 270.771L110.259 273.107L113.055 267.915L111.243 263.482L114.565 261.818Z" fill="#40E0D0"/>
<path d="M132.712 180.838L132.891 186.082L135.265 190.937L125.36 190.433L129.524 186.252L129.053 181.487L132.712 180.838Z" fill="#40E0D0"/>
<path d="M115.066 263.122C130.978 257.046 137.635 235.829 129.935 215.734C122.234 195.639 103.092 184.274 87.18 190.351C71.2676 196.427 64.6107 217.644 72.3112 237.739C80.0118 257.834 99.1538 269.199 115.066 263.122Z" fill="url(#paint2_linear_726_2)"/>
<path d="M250.136 166.456C255.15 167.967 258.433 171.775 257.469 174.96C256.505 178.146 251.66 179.502 246.644 177.99C244.632 177.413 242.788 176.364 241.265 174.929L220.101 168.258L222.765 159.91L243.957 166.032C246.021 165.679 248.14 165.824 250.136 166.456Z" fill="#FFB6B6"/>
<path d="M213.365 111.721L235.665 95.396L234.922 126.562L214.109 153.275L236.408 162.18L235.665 174.894C235.665 174.894 207.419 168.116 202.959 167.374C198.499 166.632 194.782 156.243 194.782 156.243L213.365 111.721Z" fill="#E6E6E6"/>
</g>
<defs>
<linearGradient id="paint0_linear_726_2" x1="338.406" y1="0.0673748" x2="344.138" y2="77.7711" gradientUnits="userSpaceOnUse">
<stop stop-color="#40E0D0"/>
<stop offset="1" stop-color="#A9DBB8"/>
</linearGradient>
<linearGradient id="paint1_linear_726_2" x1="127.237" y1="106.261" x2="132.969" y2="183.965" gradientUnits="userSpaceOnUse">
<stop stop-color="#40E0D0"/>
<stop offset="1" stop-color="#A9DBB8"/>
</linearGradient>
<linearGradient id="paint2_linear_726_2" x1="87.18" y1="190.351" x2="114.982" y2="263.154" gradientUnits="userSpaceOnUse">
<stop stop-color="#40E0D0"/>
<stop offset="1" stop-color="#A9DBB8"/>
</linearGradient>
<clipPath id="clip0_726_2">
<rect width="390" height="386" fill="white"/>
</clipPath>
</defs>
</svg>
